<svg width="28" height="28" viewBox="0 0 28 28" fill="none" xmlns="http://www.w3.org/2000/svg">
<path d="M16.3307 2.64648V7.46545C16.3307 8.11884 16.3307 8.44554 16.4579 8.6951C16.5697 8.91463 16.7482 9.0931 16.9677 9.20496C17.2173 9.33211 17.544 9.33211 18.1974 9.33211H23.0164M16.3307 19.832H9.33073M18.6641 15.1654H9.33073M23.3307 11.6516V20.0654C23.3307 22.0255 23.3307 23.0056 22.9493 23.7543C22.6137 24.4129 22.0783 24.9483 21.4197 25.2839C20.671 25.6654 19.6909 25.6654 17.7307 25.6654H10.2641C8.30388 25.6654 7.32379 25.6654 6.5751 25.2839C5.91653 24.9483 5.3811 24.4129 5.04554 23.7543C4.66406 23.0056 4.66406 22.0255 4.66406 20.0654V7.93203C4.66406 5.97185 4.66406 4.99176 5.04554 4.24306C5.3811 3.5845 5.91653 3.04907 6.5751 2.71351C7.32379 2.33203 8.30388 2.33203 10.2641 2.33203H14.0111C14.8672 2.33203 15.2952 2.33203 15.698 2.42874C16.0552 2.51448 16.3966 2.65589 16.7097 2.84779C17.0629 3.06424 17.3656 3.3669 17.9709 3.97223L21.6905 7.69183C22.2959 8.29716 22.5985 8.59983 22.815 8.95303C23.0069 9.26619 23.1483 9.60759 23.234 9.96472C23.3307 10.3675 23.3307 10.7956 23.3307 11.6516Z" stroke="#EF6820" stroke-width="2" stroke-linecap="round" stroke-linejoin="round"/>
</svg>
