<svg width="16" height="16" viewBox="0 0 16 16" fill="none" xmlns="http://www.w3.org/2000/svg">
<g clip-path="url(#clip0_2332_56305)">
<path d="M4.33203 8.66732L4.855 9.71326C5.032 10.0672 5.12049 10.2442 5.23872 10.3976C5.34363 10.5337 5.46564 10.6557 5.60173 10.7606C5.75511 10.8789 5.9321 10.9674 6.28609 11.1443L7.33203 11.6673L6.28609 12.1903C5.9321 12.3673 5.75511 12.4558 5.60173 12.574C5.46564 12.6789 5.34363 12.8009 5.23872 12.937C5.12049 13.0904 5.032 13.2674 4.855 13.6214L4.33203 14.6673L3.80906 13.6214C3.63207 13.2674 3.54357 13.0904 3.42534 12.937C3.32044 12.8009 3.19843 12.6789 3.06233 12.574C2.90895 12.4558 2.73196 12.3673 2.37798 12.1903L1.33203 11.6673L2.37798 11.1443C2.73196 10.9674 2.90895 10.8789 3.06233 10.7606C3.19843 10.6557 3.32044 10.5337 3.42534 10.3976C3.54357 10.2442 3.63207 10.0672 3.80906 9.71326L4.33203 8.66732Z" stroke="#717680" stroke-width="1.5" stroke-linecap="round" stroke-linejoin="round"/>
<path d="M9.9987 1.33398L10.7844 3.37693C10.9725 3.86575 11.0665 4.11016 11.2126 4.31575C11.3422 4.49795 11.5014 4.65715 11.6836 4.78671C11.8892 4.93289 12.1336 5.0269 12.6224 5.2149L14.6654 6.00065L12.6224 6.7864C12.1336 6.97441 11.8892 7.06841 11.6836 7.21459C11.5014 7.34415 11.3422 7.50335 11.2126 7.68556C11.0665 7.89114 10.9725 8.13555 10.7844 8.62437L9.9987 10.6673L9.21295 8.62437C9.02494 8.13555 8.93094 7.89114 8.78476 7.68556C8.65519 7.50335 8.496 7.34415 8.31379 7.21459C8.10821 7.06841 7.8638 6.97441 7.37498 6.7864L5.33203 6.00065L7.37498 5.2149C7.8638 5.0269 8.10821 4.93289 8.31379 4.78671C8.496 4.65715 8.6552 4.49795 8.78476 4.31575C8.93094 4.11016 9.02494 3.86575 9.21295 3.37693L9.9987 1.33398Z" stroke="#717680" stroke-width="1.5" stroke-linecap="round" stroke-linejoin="round"/>
</g>
<defs>
<clipPath id="clip0_2332_56305">
<rect width="16" height="16" fill="white"/>
</clipPath>
</defs>
</svg>
