<svg width="28" height="28" viewBox="0 0 28 28" fill="none" xmlns="http://www.w3.org/2000/svg">
<path d="M10.5013 12.25L12.8346 14.5833L18.0846 9.33333M23.3346 24.5V9.1C23.3346 7.13982 23.3346 6.15972 22.9532 5.41103C22.6176 4.75247 22.0822 4.21703 21.4236 3.88148C20.6749 3.5 19.6948 3.5 17.7346 3.5H10.268C8.30778 3.5 7.32769 3.5 6.579 3.88148C5.92043 4.21703 5.385 4.75247 5.04945 5.41103C4.66797 6.15972 4.66797 7.13982 4.66797 9.1V24.5L7.8763 22.1667L10.793 24.5L14.0013 22.1667L17.2096 24.5L20.1263 22.1667L23.3346 24.5Z" stroke="black" stroke-width="2" stroke-linecap="round" stroke-linejoin="round"/>
</svg>
