<svg xmlns="http://www.w3.org/2000/svg" width="56" height="57" fill="none"><g clip-path="url(#a)"><path fill="#F0F0F0" d="M28 56.133c15.464 0 28-12.536 28-28s-12.536-28-28-28-28 12.536-28 28 12.536 28 28 28Z"/><path fill="#D80027" d="M56.002 28.135c0-11.1-6.46-20.692-15.826-25.221v50.443c9.366-4.53 15.826-14.12 15.826-25.222ZM.001 28.134c0 11.1 6.46 20.692 15.826 25.221V2.912C6.461 7.442.001 17.032.001 28.134ZM32.87 31.787l4.87-2.434-2.435-1.218V25.7l-4.87 2.435 2.435-4.87h-2.434L28 19.614l-2.435 3.653h-2.435l2.435 4.87-4.87-2.436v2.435l-2.434 1.217 4.87 2.435-1.218 2.435h4.87v3.652h2.434v-3.652h4.87l-1.218-2.435Z"/></g><defs><clipPath id="a"><path fill="#fff" d="M0 .133h56v56H0z"/></clipPath></defs></svg>