<svg width="74" height="40" viewBox="0 0 74 40" fill="none" xmlns="http://www.w3.org/2000/svg">
<mask id="mask0_2563_84842" style="mask-type:alpha" maskUnits="userSpaceOnUse" x="1" y="2" width="72" height="37">
<rect width="72" height="36" transform="translate(1 2.3125)" fill="url(#paint0_linear_2563_84842)"/>
</mask>
<g mask="url(#mask0_2563_84842)">
<path opacity="0.1" d="M3.59091 33.9677L1 38.3125H73V2.3125L71.9773 8.5194H70.6136C70.25 9.55388 69.4955 11.6228 69.3864 11.6228C69.2773 11.6228 68.5682 12.8642 68.2273 13.4849L65.2955 15.347L63.5909 17.8297L60.8636 15.347L59.4318 13.4849L57.3864 17.8297H55.2727L53.5 13.4849C52.8182 12.8642 51.4273 11.6228 51.3182 11.6228C51.2091 11.6228 50.3182 10.3815 49.8864 9.76078H48.7955L46.2045 11.6228L43.9545 13.4849L42.9318 17.8297L39.8636 19.6918L38.2955 21.5539L36.5227 24.6573L34.8182 28.7306H34.0682L32.0227 29.1185L30.0455 24.6573L28.3409 21.5539H27.3182L25.5455 19.6918L23.0227 21.5539H20.6364L18.25 24.6573L15.8636 28.3815L14.0909 32.1056L12.1818 33.9677L9.59091 32.1056L7.54545 33.9677L5.5 35.8297L3.59091 33.9677Z" fill="#079455"/>
</g>
<path d="M1 38.3125L3.59091 33.9677L5.5 35.8297L7.54545 33.9677L9.59091 32.1056L12.1818 33.9677L14.0909 32.1056L15.8636 28.3815L18.25 24.6573L20.6364 21.5539H23.0227L25.5455 19.6918L27.3182 21.5539H28.3409L30.0455 24.6573L32.0227 29.1185L34.0682 28.7306H34.8182L36.5227 24.6573L38.2955 21.5539L39.8636 19.6918L42.9318 17.8297L43.9545 13.4849L46.2045 11.6228L48.7955 9.76078H49.8864C50.3182 10.3815 51.2091 11.6228 51.3182 11.6228C51.4273 11.6228 52.8182 12.8642 53.5 13.4849L55.2727 17.8297H57.3864L59.4318 13.4849L60.8636 15.347L63.5909 17.8297L65.2955 15.347L68.2273 13.4849C68.5682 12.8642 69.2773 11.6228 69.3864 11.6228C69.4955 11.6228 70.25 9.55388 70.6136 8.5194H71.9773L73 2.3125" stroke="#17B26A" stroke-width="2" stroke-linecap="round" stroke-linejoin="round"/>
<g opacity="0.2">
<rect x="39.625" y="1" width="17.25" height="17.25" rx="8.625" stroke="#17B26A" stroke-width="2"/>
</g>
<rect x="44" y="5.375" width="8.5" height="8.5" rx="4.25" fill="white"/>
<rect x="44" y="5.375" width="8.5" height="8.5" rx="4.25" stroke="#17B26A" stroke-width="2"/>
<defs>
<linearGradient id="paint0_linear_2563_84842" x1="36" y1="0" x2="36" y2="36" gradientUnits="userSpaceOnUse">
<stop/>
<stop offset="1" stop-opacity="0"/>
</linearGradient>
</defs>
</svg>
