<svg width="20" height="20" viewBox="0 0 20 20" fill="none" xmlns="http://www.w3.org/2000/svg">
<path d="M5.07994 9.35863C5.02814 9.02482 5.00127 8.68285 5.00127 8.33464C5.00127 4.65274 8.00568 1.66797 11.7118 1.66797C15.4179 1.66797 18.4223 4.65274 18.4223 8.33464C18.4223 9.16636 18.269 9.96251 17.9889 10.6967C17.9308 10.8492 17.9017 10.9255 17.8885 10.985C17.8754 11.044 17.8703 11.0854 17.8689 11.1458C17.8675 11.2068 17.8757 11.2739 17.8923 11.4082L18.2278 14.1334C18.2641 14.4284 18.2822 14.5759 18.2332 14.6832C18.1902 14.7771 18.1138 14.8517 18.0189 14.8926C17.9105 14.9391 17.7635 14.9176 17.4694 14.8745L14.815 14.4854C14.6764 14.4651 14.6071 14.4549 14.544 14.4553C14.4816 14.4556 14.4384 14.4602 14.3773 14.4731C14.3155 14.4861 14.2366 14.5156 14.0788 14.5747C13.3427 14.8505 12.545 15.0013 11.7118 15.0013C11.3633 15.0013 11.021 14.9749 10.6869 14.924M6.36095 18.3346C8.8317 18.3346 10.8346 16.2826 10.8346 13.7513C10.8346 11.22 8.8317 9.16797 6.36095 9.16797C3.8902 9.16797 1.88727 11.22 1.88727 13.7513C1.88727 14.2601 1.9682 14.7496 2.11759 15.2069C2.18074 15.4002 2.21232 15.4969 2.22268 15.5629C2.2335 15.6319 2.2354 15.6706 2.23137 15.7402C2.22751 15.807 2.21081 15.8824 2.17742 16.0332L1.66797 18.3346L4.16364 17.9938C4.29986 17.9752 4.36797 17.9659 4.42744 17.9663C4.49007 17.9667 4.52331 17.9701 4.58473 17.9824C4.64306 17.994 4.72977 18.0246 4.90319 18.0858C5.36013 18.2471 5.85056 18.3346 6.36095 18.3346Z" stroke="#EF6820" stroke-width="1.66667" stroke-linecap="round" stroke-linejoin="round"/>
</svg>
