<svg width="32" height="32" viewBox="0 0 32 32" fill="none" xmlns="http://www.w3.org/2000/svg">
<path d="M21.5766 1.23047C19.3637 1.23047 17.4326 2.37139 16.5772 4.53878C18.3729 6.02062 19.616 8.31355 19.616 11.4225C19.616 14.7419 18.0505 17.7757 16.4234 19.7302C19.0154 20.7111 23.072 22.6766 24.2314 25.692C28.3151 25.4655 31.9606 24.6434 31.9606 22.3074V21.5382C31.9606 19.3966 28.2265 17.3006 24.9231 16.1917C24.7729 16.1425 23.8277 15.9135 24.4234 14.076C25.9742 12.4563 27.0388 9.83478 27.0388 7.26985C27.0388 3.31785 24.5834 1.23047 21.5766 1.23047ZM11.04 5.03847C7.84 5.03847 5.07815 7.22308 5.07815 11.4225C5.07815 14.1671 6.38277 16.9683 8.03938 18.6914C8.68554 20.4132 7.51262 21.6391 7.27015 21.7314C3.92123 22.9572 0 25.1714 0 27.3843V28.2311C0 31.2452 5.74892 31.9234 11.0769 31.9234C16.4111 31.9234 22.1157 31.2452 22.1157 28.2311V27.3843C22.1157 25.1049 18.1674 22.9105 14.6535 21.7302C14.4935 21.6772 13.4831 20.6065 14.1157 18.6532H14.0775C15.7268 16.9302 17.1545 14.156 17.1545 11.4225C17.1545 7.22308 14.2363 5.03847 11.0375 5.03847H11.04Z" fill="#858E9F"/>
</svg>
