<svg width="40" height="40" viewBox="0 0 40 40" fill="none" xmlns="http://www.w3.org/2000/svg">
<path d="M20.0013 13.334C27.3651 13.334 33.3346 11.0954 33.3346 8.33398C33.3346 5.57256 27.3651 3.33398 20.0013 3.33398C12.6375 3.33398 6.66797 5.57256 6.66797 8.33398C6.66797 11.0954 12.6375 13.334 20.0013 13.334Z" stroke="#181D27" stroke-width="2.5" stroke-linecap="round" stroke-linejoin="round"/>
<path d="M33.3346 20C33.3346 22.7615 27.3651 25 20.0013 25C12.6375 25 6.66797 22.7615 6.66797 20" stroke="#181D27" stroke-width="2.5" stroke-linecap="round" stroke-linejoin="round"/>
<path d="M33.3346 8.33398V31.6673C33.3346 34.4288 27.3651 36.6673 20.0013 36.6673C12.6375 36.6673 6.66797 34.4288 6.66797 31.6673V8.33398" stroke="#181D27" stroke-width="2.5" stroke-linecap="round" stroke-linejoin="round"/>
<path d="M11.668 18.334C12.6706 18.6353 13.7919 18.9837 15.0013 19.1673" stroke="#181D27" stroke-width="2.5" stroke-linecap="round"/>
<path d="M11.668 30C12.6706 30.3013 13.7919 30.6497 15.0013 30.8333" stroke="#181D27" stroke-width="2.5" stroke-linecap="round"/>
</svg>
