<svg width="23" height="22" viewBox="0 0 23 22" fill="none" xmlns="http://www.w3.org/2000/svg">
<path d="M11.75 0.75C17.4109 0.75 22 5.33908 22 11C22 16.6609 17.4109 21.25 11.75 21.25C6.08908 21.25 1.5 16.6609 1.5 11C1.5 5.33908 6.08908 0.75 11.75 0.75Z" stroke="#D92D20" stroke-width="1.5"/>
<g clip-path="url(#clip0_2150_70361)">
<path d="M11.75 8V11L13.75 12M16.75 11C16.75 13.7614 14.5114 16 11.75 16C8.98858 16 6.75 13.7614 6.75 11C6.75 8.23858 8.98858 6 11.75 6C14.5114 6 16.75 8.23858 16.75 11Z" stroke="#D92D20" stroke-width="1.5" stroke-linecap="round" stroke-linejoin="round"/>
</g>
<defs>
<clipPath id="clip0_2150_70361">
<rect width="12" height="12" fill="white" transform="translate(5.75 5)"/>
</clipPath>
</defs>
</svg>
