
<svg xmlns="http://www.w3.org/2000/svg" width="38" height="38" fill="none"><path stroke="#17B26A" stroke-width="2" d="M19 6c7.18 0 13 5.82 13 13s-5.82 13-13 13S6 26.18 6 19 11.82 6 19 6Z" opacity=".3"/><path stroke="#17B26A" stroke-width="2" d="M19 1c9.941 0 18 8.059 18 18s-8.059 18-18 18S1 28.941 1 19 9.059 1 19 1Z" opacity=".1"/><g clip-path="url(#a)"><path stroke="#17B26A" stroke-linecap="round" stroke-linejoin="round" stroke-width="1.667" d="M27.33 18.24v.766a8.333 8.333 0 1 1-4.94-7.617m4.94.946-8.333 8.341-2.5-2.5"/></g><defs><clipPath id="a"><path fill="#fff" d="M9 9h20v20H9z"/></clipPath></defs></svg>