<svg width="10" height="8" viewBox="0 0 10 8" fill="none" xmlns="http://www.w3.org/2000/svg">
<path opacity="0.99" d="M3.59695 7.41357C3.48738 7.41366 3.37887 7.39214 3.27763 7.35024C3.17639 7.30834 3.08441 7.24689 3.00695 7.1694L0.663614 4.82524C0.511816 4.66807 0.42782 4.45757 0.429719 4.23907C0.431618 4.02057 0.519259 3.81156 0.673765 3.65705C0.828272 3.50255 1.03728 3.41491 1.25578 3.41301C1.47428 3.41111 1.68478 3.49511 1.84195 3.6469L3.59611 5.4019L8.16361 0.835237C8.32139 0.687079 8.53061 0.606115 8.74701 0.609476C8.96342 0.612836 9.17003 0.700259 9.32312 0.853244C9.47621 1.00623 9.56378 1.21278 9.5673 1.42918C9.57081 1.64558 9.48999 1.85486 9.34195 2.01274L4.18528 7.1694C4.02904 7.32569 3.81794 7.41352 3.59695 7.41357Z" fill="#16B364"/>
</svg>
