
<svg xmlns="http://www.w3.org/2000/svg" xml:space="preserve" width="512" height="512" style="enable-background:new 0 0 512 512" viewBox="0 0 49 49"><path fill="#ffcc67" d="M7.3.5c-.9 0-1.7.8-1.7 1.7v44.6c0 .9.8 1.7 1.7 1.7S9 47.7 9 46.8V2.2C9 1.3 8.2.5 7.3.5z" data-original="#ffcc67"/><path fill="#e6e6e5" d="M41.6 5.4C30.7 10.1 19.9-2.4 9 4.4v27.5c10.9-6.8 21.7 5.7 32.6 1 1-.4 1.8-1.8 1.8-2.8V6.2c0-1-.8-1.3-1.8-.8z" data-original="#e6e6e5"/><g fill="#676767"><path d="M15.9 9.3c-2.3.1-4.6.6-6.9 2.1v-7c2.3-1.4 4.6-2 6.9-2.1zm6.9 7.8c-2.3-.6-4.6-1.1-6.9-1V9.2c2.3-.1 4.6.4 6.9 1zM41.6 5.3c-1.7.7-3.4 1.1-5.1 1.1v6.9c2.3-.1 4.6-.6 6.9-2.1V6.1c0-.9-.8-1.2-1.8-.8zm-5.1 14.9c-2.3.1-4.6-.4-6.9-1v-6.9c2.3.6 4.6 1.1 6.9 1z" data-original="#676767"/><path d="M29.6 12.3c-2.3-.6-4.6-1.4-6.9-2.1V3.3c2.3.7 4.6 1.5 6.9 2.1zM15.9 23c-2.3.1-4.6.6-6.9 2.1v-6.9c2.3-1.4 4.6-2 6.9-2.1zm6.9 7.9c-2.3-.6-4.6-1.1-6.9-1V23c2.3-.1 4.6.4 6.9 1zM43.4 25c-2.3 1.4-4.6 2-6.9 2.1v-6.9c2.3-.1 4.6-.6 6.9-2.1zm-6.9 9c-2.3.1-4.6-.4-6.9-1v-6.9c2.3.6 4.6 1.1 6.9 1z" data-original="#676767"/><path d="M29.6 26.1c-2.3-.6-4.6-1.4-6.9-2.1v-6.9c2.3.6 4.6 1.4 6.9 2.1z" data-original="#676767"/></g></svg>