
<svg xmlns="http://www.w3.org/2000/svg" width="49" height="48" fill="none"><mask id="b" fill="#fff"><path d="M16.1 3c3.774 0 7.367 4 11.14 4h8.63c4.48 0 6.72 0 8.432.872a8 8 0 0 1 3.496 3.496c.872 1.711.872 3.951.872 8.432v12.4c0 4.48 0 6.72-.872 8.432a8 8 0 0 1-3.496 3.496C42.59 45 40.35 45 35.87 45h-22.4c-4.48 0-6.72 0-8.432-.872a8 8 0 0 1-3.496-3.496C.67 38.92.67 36.68.67 32.2V11a8 8 0 0 1 8-8h7.43Z"/></mask><path fill="#414651" d="M16.1 3c3.774 0 7.367 4 11.14 4h8.63c4.48 0 6.72 0 8.432.872a8 8 0 0 1 3.496 3.496c.872 1.711.872 3.951.872 8.432v12.4c0 4.48 0 6.72-.872 8.432a8 8 0 0 1-3.496 3.496C42.59 45 40.35 45 35.87 45h-22.4c-4.48 0-6.72 0-8.432-.872a8 8 0 0 1-3.496-3.496C.67 38.92.67 36.68.67 32.2V11a8 8 0 0 1 8-8h7.43Z"/><path fill="url(#a)" d="M35.87 7V6v1Zm8.432.872.454-.89-.454.89Zm3.496 3.496.89-.454-.89.454Zm.872 8.432h1-1Zm0 12.4h1-1Zm-.872 8.432.89.454-.89-.454Zm-3.496 3.496.454.89-.454-.89ZM35.87 45v1-1Zm-22.4 0v1-1Zm-8.432-.872-.454.89.454-.89Zm-3.496-3.496-.891.454.891-.454ZM.67 32.2h-1 1ZM27.24 7v1h8.63V6h-8.63v1Zm8.63 0v1c2.257 0 3.89 0 5.173.106 1.272.104 2.114.305 2.805.657l.454-.89.454-.892c-1.02-.52-2.154-.755-3.55-.869C39.822 6 38.094 6 35.87 6v1Zm8.432.872-.454.891a7 7 0 0 1 3.059 3.06l.89-.455.892-.454a9 9 0 0 0-3.933-3.933l-.454.891Zm3.496 3.496-.891.454c.352.691.553 1.533.657 2.805.105 1.284.106 2.916.106 5.173h2c0-2.224 0-3.952-.113-5.336-.114-1.396-.348-2.53-.868-3.55l-.891.454Zm.872 8.432h-1v12.4h2V19.8h-1Zm0 12.4h-1c0 2.257 0 3.89-.106 5.173-.104 1.272-.305 2.114-.657 2.805l.89.454.892.454c.52-1.02.755-2.154.868-3.55.114-1.384.113-3.112.113-5.336h-1Zm-.872 8.432-.891-.454a7 7 0 0 1-3.06 3.059l.455.89.454.892a9 9 0 0 0 3.933-3.933l-.891-.454Zm-3.496 3.496-.454-.891c-.691.352-1.533.553-2.805.657C39.759 44 38.127 44 35.87 44v2c2.224 0 3.952 0 5.336-.112 1.396-.114 2.53-.35 3.55-.87l-.454-.89ZM35.87 45v-1h-22.4v2h22.4v-1Zm-22.4 0v-1c-2.257 0-3.89 0-5.173-.106-1.272-.104-2.114-.305-2.805-.657l-.454.89-.454.892c1.02.52 2.154.755 3.55.869C9.518 46 11.246 46 13.47 46v-1Zm-8.432-.872.454-.891a7 7 0 0 1-3.059-3.06l-.891.455-.891.454a9 9 0 0 0 3.933 3.933l.454-.891Zm-3.496-3.496.891-.454c-.352-.691-.553-1.533-.657-2.805-.105-1.284-.106-2.916-.106-5.173h-2c0 2.224 0 3.952.112 5.336.114 1.396.35 2.53.869 3.55l.891-.454ZM.67 32.2h1V11h-2v21.2h1Zm0-21.2h1a7 7 0 0 1 7-7V2a9 9 0 0 0-9 9h1Zm8-8v1h7.43V2H8.67v1Zm7.43 0v1c1.584 0 3.19.846 5.093 1.879C22.973 6.846 25.05 8 27.24 8V6c-1.583 0-3.19-.846-5.092-1.879C20.368 3.154 18.29 2 16.1 2v1Z" mask="url(#b)"/><rect width="47" height="31" x="1.17" y="13.5" fill="#535862" stroke="url(#c)" rx="7.5"/><rect width="48" height="32" x=".67" y="13" fill="url(#d)" opacity=".2" rx="8"/><defs><linearGradient id="a" x1="24.67" x2="24.67" y1="3" y2="45" gradientUnits="userSpaceOnUse"><stop stop-color="#fff" stop-opacity=".12"/><stop offset="1" stop-color="#fff" stop-opacity="0"/></linearGradient><linearGradient id="c" x1="24.67" x2="24.67" y1="13" y2="45" gradientUnits="userSpaceOnUse"><stop stop-color="#fff" stop-opacity=".12"/><stop offset="1" stop-color="#fff" stop-opacity="0"/></linearGradient><linearGradient id="d" x1=".67" x2="33.679" y1="13" y2="43.922" gradientUnits="userSpaceOnUse"><stop stop-color="#fff"/><stop offset="1" stop-color="#fff" stop-opacity="0"/></linearGradient></defs></svg>