<svg xmlns="http://www.w3.org/2000/svg" width="48" height="48" fill="none"><mask id="b" fill="#fff"><path d="M15.43 3c3.774 0 7.367 4 11.14 4h8.63c4.48 0 6.72 0 8.432.872a8 8 0 0 1 3.496 3.496C48 13.08 48 15.32 48 19.8v12.4c0 4.48 0 6.72-.872 8.432a8 8 0 0 1-3.496 3.496C41.92 45 39.68 45 35.2 45H12.8c-4.48 0-6.72 0-8.432-.872a8 8 0 0 1-3.496-3.496C0 38.92 0 36.68 0 32.2V11a8 8 0 0 1 8-8h7.43Z"/></mask><path fill="#175CD3" d="M15.43 3c3.774 0 7.367 4 11.14 4h8.63c4.48 0 6.72 0 8.432.872a8 8 0 0 1 3.496 3.496C48 13.08 48 15.32 48 19.8v12.4c0 4.48 0 6.72-.872 8.432a8 8 0 0 1-3.496 3.496C41.92 45 39.68 45 35.2 45H12.8c-4.48 0-6.72 0-8.432-.872a8 8 0 0 1-3.496-3.496C0 38.92 0 36.68 0 32.2V11a8 8 0 0 1 8-8h7.43Z"/><path fill="url(#a)" d="M35.2 7V6v1Zm8.432.872.454-.89-.454.89Zm3.496 3.496.89-.454-.89.454ZM48 19.8h1-1Zm0 12.4h1-1Zm-.872 8.432.89.454-.89-.454Zm-3.496 3.496.454.89-.454-.89ZM35.2 45v1-1Zm-22.4 0v1-1Zm-8.432-.872-.454.89.454-.89ZM.872 40.632l-.89.454.89-.454ZM0 32.2h-1 1ZM26.57 7v1h8.63V6h-8.63v1Zm8.63 0v1c2.257 0 3.89 0 5.173.106 1.272.104 2.114.305 2.805.657l.454-.89.454-.892c-1.02-.52-2.154-.755-3.55-.869C39.152 6 37.424 6 35.2 6v1Zm8.432.872-.454.891a7 7 0 0 1 3.059 3.06l.89-.455.892-.454a9 9 0 0 0-3.933-3.933l-.454.891Zm3.496 3.496-.891.454c.352.691.553 1.533.657 2.805C47 15.911 47 17.543 47 19.8h2c0-2.224 0-3.952-.112-5.336-.114-1.396-.35-2.53-.87-3.55l-.89.454ZM48 19.8h-1v12.4h2V19.8h-1Zm0 12.4h-1c0 2.257 0 3.89-.106 5.173-.104 1.272-.305 2.114-.657 2.805l.89.454.892.454c.52-1.02.755-2.154.869-3.55C49 36.152 49 34.424 49 32.2h-1Zm-.872 8.432-.891-.454a7 7 0 0 1-3.06 3.059l.455.89.454.892a8.999 8.999 0 0 0 3.933-3.933l-.891-.454Zm-3.496 3.496-.454-.891c-.691.352-1.533.553-2.805.657C39.089 44 37.457 44 35.2 44v2c2.224 0 3.952 0 5.336-.112 1.396-.114 2.53-.35 3.55-.87l-.454-.89ZM35.2 45v-1H12.8v2h22.4v-1Zm-22.4 0v-1c-2.257 0-3.89 0-5.173-.106-1.272-.104-2.114-.305-2.805-.657l-.454.89-.454.892c1.02.52 2.154.755 3.55.869C8.848 46 10.576 46 12.8 46v-1Zm-8.432-.872.454-.891a7 7 0 0 1-3.059-3.06l-.89.455-.892.454a9 9 0 0 0 3.933 3.933l.454-.891ZM.872 40.632l.891-.454c-.352-.691-.553-1.533-.657-2.805C1 36.089 1 34.457 1 32.2h-2c0 2.224 0 3.952.112 5.336.114 1.396.35 2.53.87 3.55l.89-.454ZM0 32.2h1V11h-2v21.2h1ZM0 11h1a7 7 0 0 1 7-7V2a9 9 0 0 0-9 9h1Zm8-8v1h7.43V2H8v1Zm7.43 0v1c1.584 0 3.19.846 5.093 1.879C22.303 6.846 24.38 8 26.57 8V6c-1.583 0-3.19-.846-5.092-1.879C19.698 3.154 17.62 2 15.43 2v1Z" mask="url(#b)"/><rect width="47" height="31" x=".5" y="13.5" fill="#1570EF" stroke="url(#c)" rx="7.5"/><rect width="48" height="32" y="13" fill="url(#d)" opacity=".2" rx="8"/><defs><linearGradient id="a" x1="24" x2="24" y1="3" y2="45" gradientUnits="userSpaceOnUse"><stop stop-color="#fff" stop-opacity=".12"/><stop offset="1" stop-color="#fff" stop-opacity="0"/></linearGradient><linearGradient id="c" x1="24" x2="24" y1="13" y2="45" gradientUnits="userSpaceOnUse"><stop stop-color="#fff" stop-opacity=".12"/><stop offset="1" stop-color="#fff" stop-opacity="0"/></linearGradient><linearGradient id="d" x1="0" x2="33.009" y1="13" y2="43.922" gradientUnits="userSpaceOnUse"><stop stop-color="#fff"/><stop offset="1" stop-color="#fff" stop-opacity="0"/></linearGradient></defs></svg>