<svg width="48" height="48" viewBox="0 0 48 48" fill="none" xmlns="http://www.w3.org/2000/svg">
<path d="M3 17.9333C3 12.7062 3 10.0926 4.01727 8.09609C4.91209 6.33991 6.33991 4.91209 8.09609 4.01727C10.0926 3 12.7062 3 17.9333 3H30.0667C35.2938 3 37.9074 3 39.9039 4.01727C41.6601 4.91209 43.0879 6.33991 43.9827 8.09609C45 10.0926 45 12.7062 45 17.9333V30.0667C45 35.2938 45 37.9074 43.9827 39.9039C43.0879 41.6601 41.6601 43.0879 39.9039 43.9827C37.9074 45 35.2938 45 30.0667 45H17.9333C12.7062 45 10.0926 45 8.09609 43.9827C6.33991 43.0879 4.91209 41.6601 4.01727 39.9039C3 37.9074 3 35.2938 3 30.0667V17.9333Z" fill="white"/>
<path fill-rule="evenodd" clip-rule="evenodd" d="M36 19.2174L35.9998 19.2811C35.9997 19.308 35.9994 19.3349 35.9991 19.3617C35.9997 19.3931 36 19.4246 36 19.4565C36 24.4609 32.1011 28.8907 29.4921 31.855C28.735 32.7151 28.0866 33.4519 27.6735 34.0435C26.2041 36.1478 25.4286 38.4276 25.2245 39.3043C25.2245 39.9647 24.6763 40.5 24 40.5C23.3237 40.5 22.7755 39.9647 22.7755 39.3043C22.5714 38.4276 21.7959 36.1478 20.3265 34.0435C19.9134 33.4519 19.265 32.7151 18.5079 31.855C15.8989 28.8907 12 24.4609 12 19.4565C12 19.4246 12.0003 19.3931 12.0009 19.3617C12.0003 19.3137 12 19.2656 12 19.2174C12 12.746 17.3726 7.5 24 7.5C30.6274 7.5 36 12.746 36 19.2174ZM24 23.5217C26.5698 23.5217 28.6531 21.4876 28.6531 18.9783C28.6531 16.469 26.5698 14.4348 24 14.4348C21.4302 14.4348 19.3469 16.469 19.3469 18.9783C19.3469 21.4876 21.4302 23.5217 24 23.5217Z" fill="#34A851"/>
<path d="M34.6576 13.8274C33.1883 11.0627 30.6237 8.94217 27.5251 8.01367L20.6333 15.8417C21.4806 14.9748 22.6756 14.4347 23.9998 14.4347C26.5696 14.4347 28.6528 16.4689 28.6528 18.9782C28.6528 20.0018 28.3062 20.9465 27.7212 21.7061L34.6576 13.8274Z" fill="#4285F5"/>
<path d="M18.6471 32.0142C18.6011 31.9619 18.5547 31.9093 18.5079 31.8561C16.7881 29.9021 14.5079 27.3114 13.1533 24.3391L20.3163 16.2031C19.7086 16.9709 19.3469 17.9338 19.3469 18.9793C19.3469 21.4886 21.4302 23.5228 24 23.5228C25.3017 23.5228 26.4786 23.0008 27.3232 22.1596L18.6471 32.0142Z" fill="#F9BB0E"/>
<path d="M14.8393 11.6484C13.0681 13.6903 12 16.3321 12 19.2175C12 19.2657 12.0003 19.3138 12.0009 19.3619C12.0003 19.3932 12 19.4248 12 19.4567C12 21.1623 12.4529 22.8013 13.1533 24.3382L20.3043 16.2159L14.8393 11.6484Z" fill="#E74335"/>
<path d="M27.5253 8.01382C26.4106 7.67981 25.2268 7.5 24 7.5C20.3276 7.5 17.0405 9.1108 14.8394 11.6483L20.3043 16.2157L20.3162 16.2022C20.4156 16.0766 20.5216 15.9563 20.6336 15.8416L27.5253 8.01382Z" fill="#1A73E6"/>
</svg>
