<svg width="40" height="40" viewBox="0 0 40 40" fill="none" xmlns="http://www.w3.org/2000/svg">
<path d="M21.6654 18.3327C21.6654 14.6508 18.6805 11.666 14.9987 11.666C11.3168 11.666 8.33203 14.6508 8.33203 18.3327C8.33203 22.0145 11.3168 24.9993 14.9987 24.9993C18.6805 24.9993 21.6654 22.0145 21.6654 18.3327Z" stroke="#181D27" stroke-width="2.5" stroke-linecap="round" stroke-linejoin="round"/>
<path d="M18.3964 12.5962C18.3539 12.2925 18.332 11.9821 18.332 11.6667C18.332 7.98477 21.3169 5 24.9987 5C28.6805 5 31.6654 7.98477 31.6654 11.6667C31.6654 15.3486 28.6805 18.3333 24.9987 18.3333C23.7577 18.3333 22.596 17.9943 21.601 17.4038" stroke="#181D27" stroke-width="2.5" stroke-linecap="round" stroke-linejoin="round"/>
<path d="M25 35C25 29.4772 20.5228 25 15 25C9.47715 25 5 29.4772 5 35" stroke="#181D27" stroke-width="2.5" stroke-linecap="round" stroke-linejoin="round"/>
<path d="M35 28.334C35 22.8112 30.5228 18.334 25 18.334" stroke="#181D27" stroke-width="2.5" stroke-linecap="round" stroke-linejoin="round"/>
</svg>
