<svg xmlns="http://www.w3.org/2000/svg" width="20" height="20" fill="none"><path stroke="#717680" stroke-linecap="round" stroke-linejoin="round" stroke-width="1.6" d="m13.75 2.082 4.167 4.167m0-4.167L13.75 6.249m-3.333-3.75H6.5c-1.4 0-2.1 0-2.635.272a2.5 2.5 0 0 0-1.093 1.093C2.5 4.399 2.5 5.099 2.5 6.499v7c0 1.4 0 2.1.272 2.635a2.5 2.5 0 0 0 1.093 1.092C4.4 17.5 5.1 17.5 6.5 17.5h7.667c.775 0 1.162 0 1.48-.085a2.5 2.5 0 0 0 1.768-1.768c.085-.318.085-.706.085-1.48M8.75 7.081a1.667 1.667 0 1 1-3.333 0 1.667 1.667 0 0 1 3.333 0Zm3.742 2.848-7.05 6.409c-.396.36-.594.54-.612.697a.417.417 0 0 0 .14.359c.117.104.385.104.921.104h7.822c1.2 0 1.8 0 2.27-.202a2.5 2.5 0 0 0 1.316-1.315c.201-.471.201-1.07.201-2.27 0-.403 0-.605-.044-.793a1.669 1.669 0 0 0-.312-.648c-.119-.152-.276-.278-.591-.53L14.22 9.876c-.315-.252-.473-.379-.646-.423a.833.833 0 0 0-.465.015c-.17.055-.32.19-.618.462Z"/></svg>