<svg width="20" height="20" viewBox="0 0 20 20" fill="none" xmlns="http://www.w3.org/2000/svg">
<path d="M13.75 2.08203L17.9167 6.2487M17.9167 2.08203L13.75 6.2487M10.4167 2.4987H6.5C5.09987 2.4987 4.3998 2.4987 3.86502 2.77118C3.39462 3.01087 3.01217 3.39332 2.77248 3.86372C2.5 4.3985 2.5 5.09857 2.5 6.4987V13.4987C2.5 14.8988 2.5 15.5989 2.77248 16.1337C3.01217 16.6041 3.39462 16.9865 3.86502 17.2262C4.3998 17.4987 5.09987 17.4987 6.5 17.4987H14.1667C14.9416 17.4987 15.3291 17.4987 15.647 17.4135C16.5098 17.1823 17.1836 16.5085 17.4148 15.6457C17.5 15.3278 17.5 14.9403 17.5 14.1654M8.75 7.08203C8.75 8.00251 8.00381 8.7487 7.08333 8.7487C6.16286 8.7487 5.41667 8.00251 5.41667 7.08203C5.41667 6.16156 6.16286 5.41536 7.08333 5.41536C8.00381 5.41536 8.75 6.16156 8.75 7.08203ZM12.4917 9.93049L5.44262 16.3387C5.04614 16.6992 4.84789 16.8794 4.83036 17.0355C4.81516 17.1709 4.86704 17.3051 4.96932 17.395C5.08732 17.4987 5.35523 17.4987 5.89107 17.4987H13.7133C14.9126 17.4987 15.5123 17.4987 15.9833 17.2972C16.5745 17.0443 17.0456 16.5732 17.2985 15.982C17.5 15.511 17.5 14.9113 17.5 13.712C17.5 13.3085 17.5 13.1067 17.4559 12.9188C17.4005 12.6827 17.2941 12.4615 17.1444 12.2707C17.0252 12.1189 16.8677 11.9928 16.5526 11.7407L14.2215 9.87592C13.9062 9.62362 13.7485 9.49748 13.5748 9.45296C13.4218 9.41372 13.2607 9.4188 13.1104 9.46761C12.94 9.52298 12.7905 9.65882 12.4917 9.93049Z" stroke="#717680" stroke-width="1.6" stroke-linecap="round" stroke-linejoin="round"/>
</svg>
