<svg width="38" height="38" viewBox="0 0 38 38" fill="none" xmlns="http://www.w3.org/2000/svg">
<g opacity="0.3">
<path d="M19 6C26.1797 6 32 11.8203 32 19C32 26.1797 26.1797 32 19 32C11.8203 32 6 26.1797 6 19C6 11.8203 11.8203 6 19 6Z" stroke="#EF6820" stroke-width="2"/>
</g>
<g opacity="0.1">
<path d="M19 1C28.9411 1 37 9.05887 37 19C37 28.9411 28.9411 37 19 37C9.05887 37 1 28.9411 1 19C1 9.05887 9.05887 1 19 1Z" stroke="#EF6820" stroke-width="2"/>
</g>
<g clip-path="url(#clip0_2514_101324)">
<path d="M18.9974 22.3346V19.0013M18.9974 15.668H19.0057M27.3307 19.0013C27.3307 23.6037 23.5998 27.3346 18.9974 27.3346C14.395 27.3346 10.6641 23.6037 10.6641 19.0013C10.6641 14.3989 14.395 10.668 18.9974 10.668C23.5998 10.668 27.3307 14.3989 27.3307 19.0013Z" stroke="#EF6820" stroke-width="1.66667" stroke-linecap="round" stroke-linejoin="round"/>
</g>
<defs>
<clipPath id="clip0_2514_101324">
<rect width="20" height="20" fill="white" transform="translate(9 9)"/>
</clipPath>
</defs>
</svg>
