<svg width="40" height="40" viewBox="0 0 40 40" fill="none" xmlns="http://www.w3.org/2000/svg">
<path d="M15.2273 15.2271L8.21505 8.21484M8.21505 31.7851L15.2801 24.72M24.7686 24.7729L31.7808 31.7851M31.7808 8.21484L24.7147 15.2809M36.6668 19.9999C36.6668 29.2047 29.2049 36.6666 20.0002 36.6666C10.7954 36.6666 3.3335 29.2047 3.3335 19.9999C3.3335 10.7952 10.7954 3.33325 20.0002 3.33325C29.2049 3.33325 36.6668 10.7952 36.6668 19.9999ZM26.6668 19.9999C26.6668 23.6818 23.6821 26.6666 20.0002 26.6666C16.3183 26.6666 13.3335 23.6818 13.3335 19.9999C13.3335 16.318 16.3183 13.3333 20.0002 13.3333C23.6821 13.3333 26.6668 16.318 26.6668 19.9999Z" stroke="#181D27" stroke-width="2" stroke-linecap="round" stroke-linejoin="round"/>
</svg>
