<svg width="160" height="52" viewBox="0 0 160 52" fill="none" xmlns="http://www.w3.org/2000/svg">
<g clip-path="url(#clip0_2520_119020)">
<g filter="url(#filter0_iii_2520_119020)">
<rect x="0.375" width="52.3511" height="52" rx="16.5694" fill="white"/>
<rect x="1.75578" y="1.38078" width="49.5895" height="49.2384" rx="15.1886" stroke="url(#paint0_linear_2520_119020)" stroke-width="2.76156"/>
<path d="M26.8477 23.4641C33.9728 23.4641 39.7488 19.7566 39.7488 15.1832C39.7488 10.6098 33.9728 6.90234 26.8477 6.90234C19.7225 6.90234 13.9465 10.6098 13.9465 15.1832C13.9465 19.7566 19.7225 23.4641 26.8477 23.4641Z" fill="#FF5B04"/>
<path d="M22.883 44.536C26.3204 42.5488 26.1695 35.8435 22.5461 29.5592C18.9226 23.2749 13.1987 19.7915 9.76132 21.7786C6.32394 23.7658 6.47479 30.4712 10.0982 36.7554C13.7217 43.0397 19.4456 46.5232 22.883 44.536Z" fill="#003B63"/>
<path d="M42.5652 37.2418C46.4717 31.1299 46.9285 24.4385 43.5855 22.2961C40.2424 20.1536 34.3654 23.3715 30.4589 29.4833C26.5523 35.5952 26.0955 42.2866 29.4386 44.429C32.7817 46.5715 38.6586 43.3536 42.5652 37.2418Z" fill="#00707A"/>
</g>
<path d="M72.4301 13.1758H68.7261V40.1056H72.4301V13.1758Z" fill="#003B63"/>
<path d="M89.025 23.1424C87.6125 22.3371 86.0116 21.9397 84.2119 21.9397C82.4122 21.9397 80.8113 22.3371 79.3987 23.1424C77.9862 23.9477 76.8666 25.0354 76.0609 26.4054C75.2448 27.7859 74.8367 29.365 74.8367 31.1639C74.8367 32.9627 75.2448 34.5523 76.0609 35.9433C76.877 37.3342 77.9862 38.4323 79.3987 39.2271C80.8113 40.0324 82.4122 40.4298 84.2119 40.4298C86.0116 40.4298 87.6125 40.0324 89.025 39.2271C90.4376 38.4218 91.5467 37.3342 92.3629 35.9433C93.179 34.5523 93.5871 32.9627 93.5871 31.1639C93.5871 29.365 93.179 27.8172 92.3629 26.4263C91.5467 25.0354 90.4376 23.9477 89.025 23.1424ZM89.0041 34.2386C88.5333 35.1171 87.895 35.7968 87.0684 36.2884C86.2418 36.7799 85.2896 37.0205 84.2119 37.0205C83.1341 37.0205 82.182 36.7799 81.3554 36.2884C80.5288 35.7968 79.88 35.1171 79.4196 34.2386C78.9488 33.3601 78.7186 32.3561 78.7186 31.2057C78.7186 30.0553 78.9488 29.0095 79.4196 28.131C79.8905 27.2525 80.5288 26.5727 81.3554 26.0812C82.182 25.5896 83.1341 25.3491 84.2119 25.3491C85.2896 25.3491 86.2732 25.6001 87.0893 26.0812C87.9055 26.5727 88.5437 27.2525 89.0146 28.131C89.4854 29.0095 89.7156 30.0239 89.7156 31.2057C89.7156 32.3875 89.4854 33.3705 89.0146 34.2386H89.0041Z" fill="#003B63"/>
<path d="M109.251 24.5961C108.759 24.0314 108.204 23.5503 107.577 23.1424C106.342 22.3371 104.94 21.9397 103.36 21.9397C101.686 21.9397 100.189 22.3371 98.8815 23.1424C97.5736 23.9477 96.5377 25.0354 95.753 26.4263C94.9787 27.8172 94.5811 29.3964 94.5811 31.1639C94.5811 32.9313 94.9682 34.5523 95.753 35.9433C96.5273 37.3342 97.5736 38.4323 98.8815 39.2271C100.189 40.0324 101.675 40.4298 103.36 40.4298C104.94 40.4298 106.342 40.0324 107.577 39.2271C108.257 38.7879 108.843 38.2545 109.355 37.6375L109.502 40.1161H112.986V13.1758H109.251V24.5961ZM108.592 34.2386C108.152 35.1171 107.524 35.7968 106.719 36.2884C105.913 36.7799 104.961 37.0205 103.862 37.0205C102.763 37.0205 101.843 36.7799 101.037 36.2884C100.231 35.7968 99.6035 35.1171 99.1536 34.2386C98.6932 33.3601 98.4735 32.3456 98.4735 31.1639C98.4735 29.9821 98.7037 28.999 99.1536 28.131C99.6035 27.2525 100.242 26.5727 101.037 26.0812C101.843 25.5896 102.784 25.3491 103.862 25.3491C104.94 25.3491 105.913 25.6001 106.719 26.0812C107.524 26.5727 108.142 27.2525 108.592 28.131C109.031 29.0095 109.261 30.0135 109.261 31.1639C109.261 32.3143 109.041 33.3601 108.592 34.2386Z" fill="#003B63"/>
<path d="M118.595 14.1066C117.925 14.1066 117.36 14.3262 116.91 14.7759C116.45 15.2151 116.23 15.7799 116.23 16.4492C116.23 17.1185 116.46 17.6833 116.91 18.133C117.37 18.5931 117.925 18.8127 118.595 18.8127C119.264 18.8127 119.861 18.5827 120.321 18.133C120.771 17.6833 121.001 17.1185 121.001 16.4492C121.001 15.7799 120.771 15.2256 120.321 14.7759C119.861 14.3366 119.296 14.1066 118.595 14.1066Z" fill="#003B63"/>
<path d="M120.468 22.2535H116.763V40.1056H120.468V22.2535Z" fill="#003B63"/>
<path d="M130.366 16.9093C130.879 16.4074 131.621 16.1564 132.574 16.1564C132.908 16.1564 133.222 16.1877 133.505 16.2609C133.787 16.3341 134.101 16.4283 134.436 16.5538L135.189 13.3536C134.687 13.1653 134.185 13.0294 133.693 12.9561C133.201 12.8829 132.72 12.8516 132.239 12.8516C131.046 12.8516 129.968 13.113 129.006 13.6464C128.043 14.1693 127.29 14.9223 126.725 15.8949C126.16 16.8675 125.877 17.997 125.877 19.2834V22.2639H123.617L121.639 24.5229V25.4955H125.877V40.1161H129.581V25.4955H134.478V22.2639H129.581V19.252C129.581 18.1957 129.843 17.4218 130.355 16.9198L130.366 16.9093Z" fill="#003B63"/>
<path d="M150.068 22.2535L145.119 35.2739L139.616 22.2535H135.482L143.152 39.9906L140.045 48.0016H143.885L153.95 22.2535H150.068Z" fill="#003B63"/>
</g>
<defs>
<filter id="filter0_iii_2520_119020" x="0.375" y="-4.14234" width="52.3511" height="60.2847" filterUnits="userSpaceOnUse" color-interpolation-filters="sRGB">
<feFlood flood-opacity="0" result="BackgroundImageFix"/>
<feBlend mode="normal" in="SourceGraphic" in2="BackgroundImageFix" result="shape"/>
<feColorMatrix in="SourceAlpha" type="matrix" values="0 0 0 0 0 0 0 0 0 0 0 0 0 0 0 0 0 0 127 0" result="hardAlpha"/>
<feOffset dy="-4.14234"/>
<feGaussianBlur stdDeviation="2.07117"/>
<feComposite in2="hardAlpha" operator="arithmetic" k2="-1" k3="1"/>
<feColorMatrix type="matrix" values="0 0 0 0 0 0 0 0 0 0 0 0 0 0 0 0 0 0 0.1 0"/>
<feBlend mode="normal" in2="shape" result="effect1_innerShadow_2520_119020"/>
<feColorMatrix in="SourceAlpha" type="matrix" values="0 0 0 0 0 0 0 0 0 0 0 0 0 0 0 0 0 0 127 0" result="hardAlpha"/>
<feOffset dy="4.14234"/>
<feGaussianBlur stdDeviation="2.07117"/>
<feComposite in2="hardAlpha" operator="arithmetic" k2="-1" k3="1"/>
<feColorMatrix type="matrix" values="0 0 0 0 1 0 0 0 0 1 0 0 0 0 1 0 0 0 0.1 0"/>
<feBlend mode="normal" in2="effect1_innerShadow_2520_119020" result="effect2_innerShadow_2520_119020"/>
<feColorMatrix in="SourceAlpha" type="matrix" values="0 0 0 0 0 0 0 0 0 0 0 0 0 0 0 0 0 0 127 0" result="hardAlpha"/>
<feMorphology radius="1.38078" operator="erode" in="SourceAlpha" result="effect3_innerShadow_2520_119020"/>
<feOffset/>
<feComposite in2="hardAlpha" operator="arithmetic" k2="-1" k3="1"/>
<feColorMatrix type="matrix" values="0 0 0 0 0 0 0 0 0 0 0 0 0 0 0 0 0 0 0.2 0"/>
<feBlend mode="normal" in2="effect2_innerShadow_2520_119020" result="effect3_innerShadow_2520_119020"/>
</filter>
<linearGradient id="paint0_linear_2520_119020" x1="26.5506" y1="0" x2="26.5506" y2="52" gradientUnits="userSpaceOnUse">
<stop stop-color="white" stop-opacity="0.12"/>
<stop offset="1" stop-color="white" stop-opacity="0"/>
</linearGradient>
<clipPath id="clip0_2520_119020">
<rect width="159.25" height="52" fill="white" transform="translate(0.375)"/>
</clipPath>
</defs>
</svg>
