<svg width="112" height="32" viewBox="0 0 112 32" fill="none" xmlns="http://www.w3.org/2000/svg">
<g clip-path="url(#clip0_570_19214)">
<path d="M46.2002 3.94194H43.2122V25.6662H46.2002V3.94194Z" fill="white"/>
<path d="M59.5873 11.982C58.4478 11.3324 57.1564 11.0118 55.7045 11.0118C54.2527 11.0118 52.9613 11.3324 51.8218 11.982C50.6823 12.6317 49.7791 13.5091 49.1292 14.6143C48.4708 15.7279 48.1416 17.0018 48.1416 18.4529C48.1416 19.904 48.4708 21.1864 49.1292 22.3085C49.7875 23.4305 50.6823 24.3164 51.8218 24.9576C52.9613 25.6072 54.2527 25.9278 55.7045 25.9278C57.1564 25.9278 58.4478 25.6072 59.5873 24.9576C60.7268 24.3079 61.6215 23.4305 62.2799 22.3085C62.9383 21.1864 63.2675 19.904 63.2675 18.4529C63.2675 17.0018 62.9383 15.7532 62.2799 14.6311C61.6215 13.5091 60.7268 12.6317 59.5873 11.982ZM59.5704 20.9333C59.1906 21.642 58.6757 22.1904 58.0089 22.5869C57.3421 22.9834 56.5739 23.1774 55.7045 23.1774C54.8351 23.1774 54.067 22.9834 53.4002 22.5869C52.7334 22.1904 52.21 21.642 51.8387 20.9333C51.4588 20.2246 51.2731 19.4147 51.2731 18.4867C51.2731 17.5586 51.4588 16.715 51.8387 16.0063C52.2185 15.2976 52.7334 14.7493 53.4002 14.3527C54.067 13.9562 54.8351 13.7622 55.7045 13.7622C56.5739 13.7622 57.3674 13.9646 58.0258 14.3527C58.6841 14.7493 59.199 15.2976 59.5789 16.0063C59.9587 16.715 60.1444 17.5333 60.1444 18.4867C60.1444 19.44 59.9587 20.2331 59.5789 20.9333H59.5704Z" fill="white"/>
<path d="M75.9034 13.1547C75.5067 12.6992 75.0593 12.3111 74.5528 11.982C73.5568 11.3324 72.4258 11.0118 71.1512 11.0118C69.8007 11.0118 68.5936 11.3324 67.5385 11.982C66.4834 12.6317 65.6478 13.5091 65.0147 14.6311C64.3901 15.7532 64.0694 17.0271 64.0694 18.4529C64.0694 19.8787 64.3817 21.1864 65.0147 22.3085C65.6394 23.4305 66.4834 24.3164 67.5385 24.9576C68.5936 25.6072 69.7922 25.9278 71.1512 25.9278C72.4258 25.9278 73.5568 25.6072 74.5528 24.9576C75.1015 24.6032 75.5742 24.173 75.9878 23.6752L76.106 25.6747H78.9167V3.94194H75.9034V13.1547ZM75.3716 20.9333C75.0171 21.642 74.5106 22.1904 73.8607 22.5869C73.2108 22.9834 72.4426 23.1774 71.5564 23.1774C70.6701 23.1774 69.9273 22.9834 69.2773 22.5869C68.6274 22.1904 68.121 21.642 67.758 20.9333C67.3866 20.2246 67.2094 19.4063 67.2094 18.4529C67.2094 17.4996 67.3951 16.7065 67.758 16.0063C68.121 15.2976 68.6358 14.7493 69.2773 14.3527C69.9273 13.9562 70.687 13.7622 71.5564 13.7622C72.4258 13.7622 73.2108 13.9646 73.8607 14.3527C74.5106 14.7493 75.0087 15.2976 75.3716 16.0063C75.7261 16.715 75.9118 17.5249 75.9118 18.4529C75.9118 19.381 75.7346 20.2246 75.3716 20.9333Z" fill="white"/>
<path d="M83.441 4.69282C82.9008 4.69282 82.445 4.86999 82.0821 5.23277C81.7107 5.58711 81.5334 6.04268 81.5334 6.58263C81.5334 7.12257 81.7191 7.57815 82.0821 7.94092C82.4534 8.31213 82.9008 8.4893 83.441 8.4893C83.9812 8.4893 84.4624 8.3037 84.8337 7.94092C85.1967 7.57815 85.3824 7.12257 85.3824 6.58263C85.3824 6.04268 85.1967 5.59554 84.8337 5.23277C84.4624 4.87843 84.0065 4.69282 83.441 4.69282Z" fill="white"/>
<path d="M84.9519 11.2649H81.9639V25.6662H84.9519V11.2649Z" fill="white"/>
<path d="M92.9369 6.95383C93.3505 6.54887 93.9498 6.34639 94.7179 6.34639C94.988 6.34639 95.2412 6.3717 95.4691 6.43076C95.697 6.48981 95.9503 6.56574 96.2204 6.66698L96.8281 4.08538C96.423 3.93352 96.0178 3.82384 95.6211 3.76479C95.2244 3.70573 94.8361 3.68042 94.4478 3.68042C93.4856 3.68042 92.6162 3.89134 91.8396 4.3216C91.063 4.74343 90.4553 5.35087 89.9995 6.13548C89.5437 6.92008 89.3158 7.83124 89.3158 8.86894V11.2734H87.4926L85.8973 13.0957V13.8803H89.3158V25.6747H92.3038V13.8803H96.2541V11.2734H92.3038V8.84363C92.3038 7.99153 92.5149 7.36722 92.9285 6.96227L92.9369 6.95383Z" fill="white"/>
<path d="M108.831 11.2649L104.838 21.7685L100.399 11.2649H97.0645L103.252 25.5734L100.745 32.0359H103.842L111.962 11.2649H108.831Z" fill="white"/>
<path d="M14.1723 11.957C19.3325 11.957 23.5157 9.27193 23.5157 5.95975C23.5157 2.64758 19.3325 -0.0374756 14.1723 -0.0374756C9.0121 -0.0374756 4.82893 2.64758 4.82893 5.95975C4.82893 9.27193 9.0121 11.957 14.1723 11.957Z" fill="white"/>
<path d="M11.301 27.2179C13.7904 25.7787 13.6812 20.9225 11.057 16.3713C8.43277 11.82 4.28734 9.29718 1.7979 10.7364C-0.691541 12.1755 -0.582296 17.0317 2.04191 21.583C4.66611 26.1342 8.81154 28.657 11.301 27.2179Z" fill="white"/>
<path d="M25.5554 21.9352C28.3846 17.5088 28.7154 12.6627 26.2943 11.1111C23.8732 9.55947 19.6169 11.8899 16.7877 16.3163C13.9584 20.7427 13.6276 25.5888 16.0487 27.1404C18.4699 28.692 22.7262 26.3616 25.5554 21.9352Z" fill="white"/>
</g>
<defs>
<clipPath id="clip0_570_19214">
<rect width="112" height="32" fill="white"/>
</clipPath>
</defs>
</svg>
