<svg width="160" height="52" viewBox="0 0 160 52" fill="none" xmlns="http://www.w3.org/2000/svg">
<g filter="url(#filter0_iii_2197_71266)">
<rect width="52.3511" height="52" rx="16.5694" fill="white"/>
<rect x="1.38078" y="1.38078" width="49.5895" height="49.2384" rx="15.1886" stroke="url(#paint0_linear_2197_71266)" stroke-width="2.76156"/>
<path d="M26.4712 23.466C33.5963 23.466 39.3723 19.7585 39.3723 15.1852C39.3723 10.6118 33.5963 6.9043 26.4712 6.9043C19.3461 6.9043 13.57 10.6118 13.57 15.1852C13.57 19.7585 19.3461 23.466 26.4712 23.466Z" fill="#FF5B04"/>
<path d="M22.5065 44.5379C25.9439 42.5508 25.7931 35.8454 22.1696 29.5612C18.5462 23.2769 12.8222 19.7934 9.38485 21.7806C5.94748 23.7678 6.09832 30.4731 9.72177 36.7574C13.3452 43.0417 19.0692 46.5251 22.5065 44.5379Z" fill="#003B63"/>
<path d="M42.1887 37.2437C46.0953 31.1319 46.5521 24.4405 43.209 22.298C39.8659 20.1556 33.989 23.3734 30.0824 29.4853C26.1759 35.5971 25.7191 42.2885 29.0621 44.431C32.4052 46.5734 38.2822 43.3556 42.1887 37.2437Z" fill="#00707A"/>
</g>
<path d="M72.0556 13.1738H68.3516V40.1037H72.0556V13.1738Z" fill="white"/>
<path d="M88.6505 23.1405C87.238 22.3352 85.6371 21.9378 83.8374 21.9378C82.0377 21.9378 80.4368 22.3352 79.0242 23.1405C77.6117 23.9457 76.4921 25.0334 75.6864 26.4034C74.8702 27.7839 74.4622 29.3631 74.4622 31.1619C74.4622 32.9607 74.8702 34.5504 75.6864 35.9413C76.5025 37.3322 77.6117 38.4304 79.0242 39.2252C80.4368 40.0305 82.0377 40.4279 83.8374 40.4279C85.6371 40.4279 87.238 40.0305 88.6505 39.2252C90.0631 38.4199 91.1722 37.3322 91.9883 35.9413C92.8045 34.5504 93.2126 32.9607 93.2126 31.1619C93.2126 29.3631 92.8045 27.8153 91.9883 26.4243C91.1722 25.0334 90.0631 23.9457 88.6505 23.1405ZM88.6296 34.2366C88.1587 35.1151 87.5205 35.7949 86.6939 36.2864C85.8673 36.778 84.9151 37.0185 83.8374 37.0185C82.7596 37.0185 81.8075 36.778 80.9809 36.2864C80.1543 35.7949 79.5055 35.1151 79.0451 34.2366C78.5743 33.3581 78.3441 32.3541 78.3441 31.2037C78.3441 30.0533 78.5743 29.0075 79.0451 28.129C79.516 27.2505 80.1543 26.5708 80.9809 26.0792C81.8075 25.5877 82.7596 25.3471 83.8374 25.3471C84.9151 25.3471 85.8987 25.5981 86.7148 26.0792C87.5309 26.5708 88.1692 27.2505 88.6401 28.129C89.1109 29.0075 89.3411 30.022 89.3411 31.2037C89.3411 32.3855 89.1109 33.3686 88.6401 34.2366H88.6296Z" fill="white"/>
<path d="M108.876 24.5942C108.384 24.0294 107.83 23.5483 107.202 23.1405C105.967 22.3352 104.565 21.9378 102.985 21.9378C101.311 21.9378 99.815 22.3352 98.507 23.1405C97.1991 23.9457 96.1632 25.0334 95.3785 26.4243C94.6042 27.8153 94.2066 29.3945 94.2066 31.1619C94.2066 32.9293 94.5937 34.5504 95.3785 35.9413C96.1528 37.3322 97.1991 38.4304 98.507 39.2252C99.815 40.0305 101.301 40.4279 102.985 40.4279C104.565 40.4279 105.967 40.0305 107.202 39.2252C107.882 38.7859 108.468 38.2526 108.981 37.6355L109.127 40.1141H112.612V13.1738H108.876V24.5942ZM108.217 34.2366C107.778 35.1151 107.15 35.7949 106.344 36.2864C105.538 36.778 104.586 37.0185 103.488 37.0185C102.389 37.0185 101.468 36.778 100.662 36.2864C99.8568 35.7949 99.229 35.1151 98.7791 34.2366C98.3187 33.3581 98.099 32.3437 98.099 31.1619C98.099 29.9801 98.3292 28.9971 98.7791 28.129C99.229 27.2505 99.8673 26.5708 100.662 26.0792C101.468 25.5877 102.41 25.3471 103.488 25.3471C104.565 25.3471 105.538 25.5981 106.344 26.0792C107.15 26.5708 107.767 27.2505 108.217 28.129C108.657 29.0075 108.887 30.0115 108.887 31.1619C108.887 32.3123 108.667 33.3581 108.217 34.2366Z" fill="white"/>
<path d="M118.22 14.1046C117.55 14.1046 116.985 14.3242 116.535 14.7739C116.075 15.2132 115.855 15.7779 115.855 16.4472C115.855 17.1166 116.086 17.6813 116.535 18.131C116.996 18.5912 117.55 18.8108 118.22 18.8108C118.89 18.8108 119.486 18.5807 119.947 18.131C120.396 17.6813 120.627 17.1166 120.627 16.4472C120.627 15.7779 120.396 15.2236 119.947 14.7739C119.486 14.3347 118.921 14.1046 118.22 14.1046Z" fill="white"/>
<path d="M120.093 22.2515H116.389V40.1037H120.093V22.2515Z" fill="white"/>
<path d="M129.991 16.9074C130.504 16.4054 131.247 16.1544 132.199 16.1544C132.534 16.1544 132.848 16.1858 133.13 16.259C133.413 16.3322 133.727 16.4263 134.062 16.5518L134.815 13.3516C134.313 13.1634 133.81 13.0274 133.319 12.9542C132.827 12.881 132.346 12.8496 131.864 12.8496C130.671 12.8496 129.594 13.1111 128.631 13.6444C127.668 14.1673 126.915 14.9203 126.35 15.8929C125.785 16.8656 125.503 17.995 125.503 19.2814V22.262H123.242L121.265 24.521V25.4936H125.503V40.1141H129.207V25.4936H134.103V22.262H129.207V19.25C129.207 18.1938 129.468 17.4198 129.981 16.9178L129.991 16.9074Z" fill="white"/>
<path d="M149.694 22.2515L144.745 35.272L139.241 22.2515H135.108L142.778 39.9886L139.67 47.9996H143.51L153.576 22.2515H149.694Z" fill="white"/>
<defs>
<filter id="filter0_iii_2197_71266" x="0" y="-4.14234" width="52.3516" height="60.2847" filterUnits="userSpaceOnUse" color-interpolation-filters="sRGB">
<feFlood flood-opacity="0" result="BackgroundImageFix"/>
<feBlend mode="normal" in="SourceGraphic" in2="BackgroundImageFix" result="shape"/>
<feColorMatrix in="SourceAlpha" type="matrix" values="0 0 0 0 0 0 0 0 0 0 0 0 0 0 0 0 0 0 127 0" result="hardAlpha"/>
<feOffset dy="-4.14234"/>
<feGaussianBlur stdDeviation="2.07117"/>
<feComposite in2="hardAlpha" operator="arithmetic" k2="-1" k3="1"/>
<feColorMatrix type="matrix" values="0 0 0 0 0 0 0 0 0 0 0 0 0 0 0 0 0 0 0.1 0"/>
<feBlend mode="normal" in2="shape" result="effect1_innerShadow_2197_71266"/>
<feColorMatrix in="SourceAlpha" type="matrix" values="0 0 0 0 0 0 0 0 0 0 0 0 0 0 0 0 0 0 127 0" result="hardAlpha"/>
<feOffset dy="4.14234"/>
<feGaussianBlur stdDeviation="2.07117"/>
<feComposite in2="hardAlpha" operator="arithmetic" k2="-1" k3="1"/>
<feColorMatrix type="matrix" values="0 0 0 0 1 0 0 0 0 1 0 0 0 0 1 0 0 0 0.1 0"/>
<feBlend mode="normal" in2="effect1_innerShadow_2197_71266" result="effect2_innerShadow_2197_71266"/>
<feColorMatrix in="SourceAlpha" type="matrix" values="0 0 0 0 0 0 0 0 0 0 0 0 0 0 0 0 0 0 127 0" result="hardAlpha"/>
<feMorphology radius="1.38078" operator="erode" in="SourceAlpha" result="effect3_innerShadow_2197_71266"/>
<feOffset/>
<feComposite in2="hardAlpha" operator="arithmetic" k2="-1" k3="1"/>
<feColorMatrix type="matrix" values="0 0 0 0 0 0 0 0 0 0 0 0 0 0 0 0 0 0 0.2 0"/>
<feBlend mode="normal" in2="effect2_innerShadow_2197_71266" result="effect3_innerShadow_2197_71266"/>
</filter>
<linearGradient id="paint0_linear_2197_71266" x1="26.1756" y1="0" x2="26.1756" y2="52" gradientUnits="userSpaceOnUse">
<stop stop-color="white" stop-opacity="0.12"/>
<stop offset="1" stop-color="white" stop-opacity="0"/>
</linearGradient>
</defs>
</svg>
