<svg width="16" height="12" viewBox="0 0 16 12" fill="none" xmlns="http://www.w3.org/2000/svg">
<path d="M1.33301 2.66675L6.77629 6.47704C7.21707 6.78559 7.43746 6.93986 7.67718 6.99962C7.88894 7.0524 8.11041 7.0524 8.32217 6.99962C8.56189 6.93986 8.78228 6.78559 9.22306 6.47704L14.6663 2.66675M4.53301 11.3334H11.4663C12.5864 11.3334 13.1465 11.3334 13.5743 11.1154C13.9506 10.9237 14.2566 10.6177 14.4484 10.2414C14.6663 9.81357 14.6663 9.25352 14.6663 8.13341V3.86675C14.6663 2.74664 14.6663 2.18659 14.4484 1.75877C14.2566 1.38244 13.9506 1.07648 13.5743 0.884735C13.1465 0.666748 12.5864 0.666748 11.4663 0.666748H4.53301C3.4129 0.666748 2.85285 0.666748 2.42503 0.884735C2.0487 1.07648 1.74274 1.38244 1.55099 1.75877C1.33301 2.18659 1.33301 2.74664 1.33301 3.86675V8.13341C1.33301 9.25352 1.33301 9.81357 1.55099 10.2414C1.74274 10.6177 2.0487 10.9237 2.42503 11.1154C2.85285 11.3334 3.4129 11.3334 4.53301 11.3334Z" stroke="#94979C" stroke-width="1.33333" stroke-linecap="round" stroke-linejoin="round"/>
</svg>
