<svg width="60" height="60" viewBox="0 0 60 60" fill="none" xmlns="http://www.w3.org/2000/svg">
<g filter="url(#filter0_dii_196_17825)">
<path d="M2 13C2 6.37258 7.37258 1 14 1H46C52.6274 1 58 6.37258 58 13V45C58 51.6274 52.6274 57 46 57H14C7.37258 57 2 51.6274 2 45V13Z" fill="white"/>
<path d="M14 1.5H46C52.3513 1.5 57.5 6.64873 57.5 13V45C57.5 51.3513 52.3513 56.5 46 56.5H14C7.64873 56.5 2.5 51.3513 2.5 45V13C2.5 6.64873 7.64873 1.5 14 1.5Z" stroke="#E9EAEB"/>
<path d="M18.333 23.1667L27.8587 29.8348C28.6301 30.3747 29.0158 30.6447 29.4353 30.7493C29.8059 30.8416 30.1935 30.8416 30.564 30.7493C30.9836 30.6447 31.3692 30.3747 32.1406 29.8348L41.6663 23.1667M23.933 38.3334H36.0663C38.0265 38.3334 39.0066 38.3334 39.7553 37.9519C40.4139 37.6164 40.9493 37.081 41.2849 36.4224C41.6663 35.6737 41.6663 34.6936 41.6663 32.7334V25.2667C41.6663 23.3066 41.6663 22.3265 41.2849 21.5778C40.9493 20.9192 40.4139 20.3838 39.7553 20.0482C39.0066 19.6667 38.0265 19.6667 36.0663 19.6667H23.933C21.9728 19.6667 20.9927 19.6667 20.244 20.0482C19.5855 20.3838 19.05 20.9192 18.7145 21.5778C18.333 22.3265 18.333 23.3066 18.333 25.2667V32.7334C18.333 34.6936 18.333 35.6737 18.7145 36.4224C19.05 37.081 19.5855 37.6164 20.244 37.9519C20.9927 38.3334 21.9728 38.3334 23.933 38.3334Z" stroke="#414651" stroke-width="2" stroke-linecap="round" stroke-linejoin="round"/>
</g>
<defs>
<filter id="filter0_dii_196_17825" x="0" y="0" width="60" height="60" filterUnits="userSpaceOnUse" color-interpolation-filters="sRGB">
<feFlood flood-opacity="0" result="BackgroundImageFix"/>
<feColorMatrix in="SourceAlpha" type="matrix" values="0 0 0 0 0 0 0 0 0 0 0 0 0 0 0 0 0 0 127 0" result="hardAlpha"/>
<feOffset dy="1"/>
<feGaussianBlur stdDeviation="1"/>
<feComposite in2="hardAlpha" operator="out"/>
<feColorMatrix type="matrix" values="0 0 0 0 0.0392157 0 0 0 0 0.0496732 0 0 0 0 0.0705882 0 0 0 0.05 0"/>
<feBlend mode="normal" in2="BackgroundImageFix" result="effect1_dropShadow_196_17825"/>
<feBlend mode="normal" in="SourceGraphic" in2="effect1_dropShadow_196_17825" result="shape"/>
<feColorMatrix in="SourceAlpha" type="matrix" values="0 0 0 0 0 0 0 0 0 0 0 0 0 0 0 0 0 0 127 0" result="hardAlpha"/>
<feOffset dy="-2"/>
<feComposite in2="hardAlpha" operator="arithmetic" k2="-1" k3="1"/>
<feColorMatrix type="matrix" values="0 0 0 0 0.0392157 0 0 0 0 0.0496732 0 0 0 0 0.0705882 0 0 0 0.05 0"/>
<feBlend mode="normal" in2="shape" result="effect2_innerShadow_196_17825"/>
<feColorMatrix in="SourceAlpha" type="matrix" values="0 0 0 0 0 0 0 0 0 0 0 0 0 0 0 0 0 0 127 0" result="hardAlpha"/>
<feMorphology radius="1" operator="erode" in="SourceAlpha" result="effect3_innerShadow_196_17825"/>
<feOffset/>
<feComposite in2="hardAlpha" operator="arithmetic" k2="-1" k3="1"/>
<feColorMatrix type="matrix" values="0 0 0 0 0.0392157 0 0 0 0 0.0496732 0 0 0 0 0.0705882 0 0 0 0.18 0"/>
<feBlend mode="normal" in2="effect2_innerShadow_196_17825" result="effect3_innerShadow_196_17825"/>
</filter>
</defs>
</svg>
