<svg width="16" height="16" viewBox="0 0 16 16" fill="none" xmlns="http://www.w3.org/2000/svg">
<path d="M8.66536 4.66667H3.46536C2.71863 4.66667 2.34526 4.66667 2.06004 4.81199C1.80916 4.93982 1.60519 5.1438 1.47736 5.39468C1.33203 5.67989 1.33203 6.05326 1.33203 6.8V9.2C1.33203 9.94674 1.33203 10.3201 1.47736 10.6053C1.60519 10.8562 1.80916 11.0602 2.06004 11.188C2.34526 11.3333 2.71863 11.3333 3.46536 11.3333H8.66536M11.332 4.66667H12.532C13.2788 4.66667 13.6521 4.66667 13.9374 4.81199C14.1882 4.93982 14.3922 5.1438 14.52 5.39468C14.6654 5.67989 14.6654 6.05326 14.6654 6.8V9.2C14.6654 9.94674 14.6654 10.3201 14.52 10.6053C14.3922 10.8562 14.1882 11.0602 13.9374 11.188C13.6521 11.3333 13.2788 11.3333 12.532 11.3333H11.332M11.332 14L11.332 2M12.9987 2.00001L9.66536 2M12.9987 14L9.66536 14" stroke="#717680" stroke-width="1.5" stroke-linecap="round" stroke-linejoin="round"/>
</svg>
