<svg width="26" height="26" viewBox="0 0 26 26" fill="none" xmlns="http://www.w3.org/2000/svg">
<path d="M22.333 13.0007C22.333 18.1553 18.1543 22.334 12.9997 22.334M22.333 13.0007C22.333 7.84599 18.1543 3.66732 12.9997 3.66732M22.333 13.0007H24.6663M12.9997 22.334C7.84502 22.334 3.66634 18.1553 3.66634 13.0007M12.9997 22.334V24.6673M3.66634 13.0007C3.66634 7.84599 7.84502 3.66732 12.9997 3.66732M3.66634 13.0007H1.33301M12.9997 3.66732V1.33398M16.4997 13.0007C16.4997 14.9336 14.9327 16.5007 12.9997 16.5007C11.0667 16.5007 9.49967 14.9336 9.49967 13.0007C9.49967 11.0677 11.0667 9.50065 12.9997 9.50065C14.9327 9.50065 16.4997 11.0677 16.4997 13.0007Z" stroke="#1570EF" stroke-width="2" stroke-linecap="round" stroke-linejoin="round"/>
</svg>
