<svg width="20" height="20" viewBox="0 0 20 20" fill="none" xmlns="http://www.w3.org/2000/svg">
<mask id="mask0_2532_26140" style="mask-type:alpha" maskUnits="userSpaceOnUse" x="0" y="0" width="20" height="20">
<rect width="20" height="20" fill="#D9D9D9"/>
</mask>
<g mask="url(#mask0_2532_26140)">
<path d="M10.0058 18C8.90472 18 7.86806 17.7917 6.89583 17.375C5.92361 16.9583 5.07292 16.3854 4.34375 15.6562C3.61458 14.9271 3.04167 14.0767 2.625 13.105C2.20833 12.1333 2 11.0951 2 9.99042C2 8.88569 2.20833 7.85069 2.625 6.88542C3.04167 5.92014 3.61458 5.07292 4.34375 4.34375C5.07292 3.61458 5.92333 3.04167 6.895 2.625C7.86667 2.20833 8.90486 2 10.0096 2C11.1143 2 12.1493 2.20833 13.1146 2.625C14.0799 3.04167 14.9271 3.61458 15.6562 4.34375C16.3854 5.07292 16.9583 5.92167 17.375 6.89C17.7917 7.85847 18 8.89319 18 9.99417C18 11.0953 17.7917 12.1319 17.375 13.1042C16.9583 14.0764 16.3854 14.9271 15.6562 15.6562C14.9271 16.3854 14.0783 16.9583 13.11 17.375C12.1415 17.7917 11.1068 18 10.0058 18ZM7.1875 13.8125L9.85417 12.5833C9.90903 12.5556 9.96111 12.5417 10.0104 12.5417C10.0597 12.5417 10.1118 12.5556 10.1667 12.5833L12.8333 13.8125C13.0278 13.8958 13.1944 13.875 13.3333 13.75C13.4722 13.625 13.5069 13.4792 13.4375 13.3125L10.4583 6.08333C10.3704 5.875 10.2165 5.77083 9.99646 5.77083C9.7766 5.77083 9.625 5.875 9.54167 6.08333L6.5625 13.3125C6.49306 13.4792 6.53257 13.625 6.68104 13.75C6.82965 13.875 6.99847 13.8958 7.1875 13.8125Z" fill="#414651"/>
</g>
</svg>
