<svg width="20" height="20" viewBox="0 0 20 20" fill="none" xmlns="http://www.w3.org/2000/svg">
<g clip-path="url(#clip0_3328_80513)">
<path d="M3.33073 15.0013V14.8346C3.33073 13.4345 3.33073 12.7344 3.60321 12.1997C3.8429 11.7293 4.22535 11.3468 4.69575 11.1071C5.23053 10.8346 5.9306 10.8346 7.33073 10.8346H12.6641C14.0642 10.8346 14.7643 10.8346 15.299 11.1071C15.7694 11.3468 16.1519 11.7293 16.3916 12.1997C16.6641 12.7344 16.6641 13.4345 16.6641 14.8346V15.0013M3.33073 15.0013C2.41025 15.0013 1.66406 15.7475 1.66406 16.668C1.66406 17.5884 2.41025 18.3346 3.33073 18.3346C4.2512 18.3346 4.9974 17.5884 4.9974 16.668C4.9974 15.7475 4.2512 15.0013 3.33073 15.0013ZM16.6641 15.0013C15.7436 15.0013 14.9974 15.7475 14.9974 16.668C14.9974 17.5884 15.7436 18.3346 16.6641 18.3346C17.5845 18.3346 18.3307 17.5884 18.3307 16.668C18.3307 15.7475 17.5845 15.0013 16.6641 15.0013ZM9.9974 15.0013C9.07692 15.0013 8.33073 15.7475 8.33073 16.668C8.33073 17.5884 9.07692 18.3346 9.9974 18.3346C10.9179 18.3346 11.6641 17.5884 11.6641 16.668C11.6641 15.7475 10.9179 15.0013 9.9974 15.0013ZM9.9974 15.0013V6.66797M4.9974 6.66797H14.9974C15.774 6.66797 16.1623 6.66797 16.4685 6.5411C16.8769 6.37195 17.2014 6.04749 17.3705 5.63911C17.4974 5.33282 17.4974 4.94454 17.4974 4.16797C17.4974 3.3914 17.4974 3.00311 17.3705 2.69683C17.2014 2.28845 16.8769 1.96399 16.4685 1.79484C16.1623 1.66797 15.774 1.66797 14.9974 1.66797H4.9974C4.22083 1.66797 3.83254 1.66797 3.52626 1.79484C3.11788 1.96399 2.79342 2.28845 2.62426 2.69683C2.4974 3.00311 2.4974 3.3914 2.4974 4.16797C2.4974 4.94454 2.4974 5.33282 2.62426 5.63911C2.79342 6.04749 3.11788 6.37195 3.52626 6.5411C3.83254 6.66797 4.22083 6.66797 4.9974 6.66797Z" stroke="#94979C" stroke-width="2.004" stroke-linecap="round" stroke-linejoin="round"/>
</g>
<defs>
<clipPath id="clip0_3328_80513">
<rect width="20" height="20" fill="white"/>
</clipPath>
</defs>
</svg>
