<svg width="20" height="20" viewBox="0 0 20 20" fill="none" xmlns="http://www.w3.org/2000/svg">
<path d="M16.6693 10.418V5.66797C16.6693 4.26784 16.6693 3.56777 16.3968 3.03299C16.1571 2.56259 15.7747 2.18014 15.3042 1.94045C14.7695 1.66797 14.0694 1.66797 12.6693 1.66797H7.33594C5.93581 1.66797 5.23574 1.66797 4.70096 1.94045C4.23056 2.18014 3.8481 2.56259 3.60842 3.03299C3.33594 3.56777 3.33594 4.26784 3.33594 5.66797V14.3346C3.33594 15.7348 3.33594 16.4348 3.60842 16.9696C3.8481 17.44 4.23056 17.8225 4.70096 18.0622C5.23574 18.3346 5.93581 18.3346 7.33594 18.3346H10.0026M11.6693 9.16797H6.66927M8.33594 12.5013H6.66927M13.3359 5.83464H6.66927M12.0859 15.8346L13.7526 17.5013L17.5026 13.7513" stroke="#94979C" stroke-width="2.004" stroke-linecap="round" stroke-linejoin="round"/>
</svg>
