<svg width="20" height="20" viewBox="0 0 20 20" fill="none" xmlns="http://www.w3.org/2000/svg">
<path d="M7.79642 17.5013C8.38403 18.0199 9.15591 18.3346 10.0013 18.3346C10.8466 18.3346 11.6185 18.0199 12.2061 17.5013M15.0013 6.66797C15.0013 5.34189 14.4745 4.07012 13.5368 3.13243C12.5991 2.19475 11.3274 1.66797 10.0013 1.66797C8.6752 1.66797 7.40343 2.19475 6.46574 3.13243C5.52806 4.07012 5.00128 5.34189 5.00128 6.66797C5.00128 9.24312 4.35167 11.0063 3.626 12.1725C3.01388 13.1562 2.70783 13.6481 2.71905 13.7853C2.73147 13.9372 2.76366 13.9951 2.88609 14.086C2.99666 14.168 3.4951 14.168 4.49199 14.168H15.5106C16.5075 14.168 17.0059 14.168 17.1165 14.086C17.2389 13.9951 17.2711 13.9372 17.2835 13.7853C17.2947 13.6481 16.9887 13.1562 16.3766 12.1725C15.6509 11.0063 15.0013 9.24312 15.0013 6.66797Z" stroke="#94979C" stroke-width="1.67" stroke-linecap="round" stroke-linejoin="round"/>
</svg>
