<svg width="20" height="20" viewBox="0 0 20 20" fill="none" xmlns="http://www.w3.org/2000/svg">
<path d="M11.6641 5.83203H13.6118C13.8156 5.83203 13.9175 5.83203 14.0134 5.85506C14.0985 5.87547 14.1797 5.90914 14.2543 5.95483C14.3384 6.00637 14.4105 6.07843 14.5546 6.22256L17.9402 9.60817C18.0843 9.7523 18.1564 9.82436 18.2079 9.90846C18.2536 9.98302 18.2873 10.0643 18.3077 10.1493C18.3307 10.2452 18.3307 10.3472 18.3307 10.551V12.9154C18.3307 13.3036 18.3307 13.4978 18.2673 13.6509C18.1827 13.8551 18.0205 14.0174 17.8163 14.1019C17.6632 14.1654 17.469 14.1654 17.0807 14.1654M12.9141 14.1654H11.6641M11.6641 14.1654V5.9987C11.6641 5.06528 11.6641 4.59857 11.4824 4.24205C11.3226 3.92844 11.0677 3.67348 10.754 3.51369C10.3975 3.33203 9.93082 3.33203 8.9974 3.33203H4.33073C3.39731 3.33203 2.9306 3.33203 2.57408 3.51369C2.26047 3.67348 2.00551 3.92844 1.84572 4.24205C1.66406 4.59857 1.66406 5.06528 1.66406 5.9987V12.4987C1.66406 13.4192 2.41025 14.1654 3.33073 14.1654M11.6641 14.1654H8.33073M8.33073 14.1654C8.33073 15.5461 7.21144 16.6654 5.83073 16.6654C4.45002 16.6654 3.33073 15.5461 3.33073 14.1654M8.33073 14.1654C8.33073 12.7847 7.21144 11.6654 5.83073 11.6654C4.45002 11.6654 3.33073 12.7847 3.33073 14.1654M17.0807 14.582C17.0807 15.7326 16.148 16.6654 14.9974 16.6654C13.8468 16.6654 12.9141 15.7326 12.9141 14.582C12.9141 13.4314 13.8468 12.4987 14.9974 12.4987C16.148 12.4987 17.0807 13.4314 17.0807 14.582Z" stroke="#94979C" stroke-width="2.004" stroke-linecap="round" stroke-linejoin="round"/>
</svg>
