<svg width="18" height="14" viewBox="0 0 18 14" fill="none" xmlns="http://www.w3.org/2000/svg">
<path d="M15.625 3.125H15C14.655 3.125 14.375 3.405 14.375 3.75V5.625H12.5V4.375C12.5 3.68438 11.9406 3.125 11.25 3.125H8.75V1.875H11.25C11.595 1.875 11.875 1.595 11.875 1.25V0.625C11.875 0.28 11.595 0 11.25 0H4.375C4.03 0 3.75 0.28 3.75 0.625V1.25C3.75 1.595 4.03 1.875 4.375 1.875H6.875V3.125H4.375C3.68438 3.125 3.125 3.68438 3.125 4.375V6.875H1.875V5C1.875 4.655 1.595 4.375 1.25 4.375H0.625C0.28 4.375 0 4.655 0 5V10.625C0 10.97 0.28 11.25 0.625 11.25H1.25C1.595 11.25 1.875 10.97 1.875 10.625V8.75H3.125V10.37C3.125 10.7306 3.28063 11.0731 3.55188 11.3106L5.27188 12.8156C5.49938 13.015 5.79188 13.125 6.09438 13.125H11.25C11.9406 13.125 12.5 12.5656 12.5 11.875V10H14.375V11.875C14.375 12.22 14.655 12.5 15 12.5H15.625C16.6606 12.5 17.5 11.6606 17.5 10.625V5C17.5 3.96438 16.6606 3.125 15.625 3.125ZM9.895 8.47188L8.645 10.3469C8.45312 10.6344 8.125 10.625 8.125 10.625V8.75H6.875C6.64437 8.75 6.4325 8.62313 6.32375 8.42C6.215 8.21688 6.22688 7.97 6.355 7.77875L7.605 5.90375C7.79625 5.61562 8.125 5.625 8.125 5.625V7.5H9.375C9.60563 7.5 9.8175 7.62687 9.92625 7.83C10.035 8.03312 10.0231 8.28 9.895 8.47188Z" fill="#414651"/>
</svg>
