<svg width="18" height="18" viewBox="0 0 18 18" fill="none" xmlns="http://www.w3.org/2000/svg">
<path d="M1.84422 7.95373C1.3481 7.7608 1.10004 7.66433 1.02761 7.52533C0.964833 7.40483 0.964749 7.26129 1.02739 7.14071C1.09965 7.00163 1.34759 6.90486 1.84349 6.71134L15.9166 1.21939C16.3643 1.0447 16.5881 0.957356 16.7311 1.00514C16.8553 1.04663 16.9528 1.1441 16.9943 1.26831C17.0421 1.41133 16.9547 1.63516 16.78 2.08281L11.2881 16.1559C11.0946 16.6518 10.9978 16.8998 10.8587 16.972C10.7381 17.0347 10.5946 17.0346 10.4741 16.9718C10.3351 16.8994 10.2386 16.6513 10.0457 16.1552L7.85559 10.5235C7.81643 10.4228 7.79685 10.3725 7.7666 10.3301C7.7398 10.2925 7.70693 10.2596 7.66935 10.2328C7.62695 10.2026 7.5766 10.183 7.47589 10.1438L1.84422 7.95373Z" stroke="#175CD3" stroke-width="1.66667" stroke-linecap="round" stroke-linejoin="round"/>
</svg>
