<svg width="20" height="20" viewBox="0 0 20 20" fill="none" xmlns="http://www.w3.org/2000/svg">
<path d="M5.00008 8.33329V11.6666M15.0001 8.33329V11.6666M1.66675 6.83329L1.66675 13.1666C1.66675 14.1 1.66675 14.5668 1.8484 14.9233C2.00819 15.2369 2.26316 15.4918 2.57676 15.6516C2.93328 15.8333 3.39999 15.8333 4.33341 15.8333L15.6667 15.8333C16.6002 15.8333 17.0669 15.8333 17.4234 15.6516C17.737 15.4918 17.992 15.2369 18.1518 14.9233C18.3334 14.5668 18.3334 14.1 18.3334 13.1666V6.83329C18.3334 5.89987 18.3334 5.43316 18.1518 5.07664C17.992 4.76304 17.737 4.50807 17.4234 4.34828C17.0669 4.16663 16.6002 4.16663 15.6667 4.16663L4.33342 4.16663C3.39999 4.16663 2.93328 4.16663 2.57676 4.34828C2.26316 4.50807 2.00819 4.76304 1.8484 5.07664C1.66675 5.43316 1.66675 5.89987 1.66675 6.83329ZM12.0834 9.99996C12.0834 11.1506 11.1507 12.0833 10.0001 12.0833C8.84949 12.0833 7.91675 11.1506 7.91675 9.99996C7.91675 8.84937 8.84949 7.91663 10.0001 7.91663C11.1507 7.91663 12.0834 8.84937 12.0834 9.99996Z" stroke="#94979C" stroke-width="2.004" stroke-linecap="round" stroke-linejoin="round"/>
</svg>
