<svg width="20" height="20" viewBox="0 0 20 20" fill="none" xmlns="http://www.w3.org/2000/svg">
<path d="M7.5724 7.5013C7.76832 6.94436 8.15502 6.47472 8.66403 6.17558C9.17303 5.87643 9.77148 5.76708 10.3534 5.8669C10.9353 5.96671 11.4631 6.26924 11.8433 6.72091C12.2235 7.17258 12.4316 7.74424 12.4307 8.33464C12.4307 10.0013 9.93073 10.8346 9.93073 10.8346M9.9974 14.168H10.0057M18.3307 10.0013C18.3307 14.6037 14.5998 18.3346 9.9974 18.3346C5.39502 18.3346 1.66406 14.6037 1.66406 10.0013C1.66406 5.39893 5.39502 1.66797 9.9974 1.66797C14.5998 1.66797 18.3307 5.39893 18.3307 10.0013Z" stroke="#175CD3" stroke-width="1.66667" stroke-linecap="round" stroke-linejoin="round"/>
</svg>
