<svg width="32" height="32" viewBox="0 0 32 32" fill="none" xmlns="http://www.w3.org/2000/svg">
<path d="M16 2H8.25C7.38805 2 6.5614 2.34241 5.9519 2.9519C5.34241 3.5614 5 4.38805 5 5.25V26.75C5 27.612 5.34241 28.4386 5.9519 29.0481C6.5614 29.6576 7.38805 30 8.25 30H23.75C24.612 30 25.4386 29.6576 26.0481 29.0481C26.6576 28.4386 27 27.612 27 26.75V13H19.25C18.388 13 17.5614 12.6576 16.9519 12.0481C16.3424 11.4386 16 10.612 16 9.75V2ZM26.863 11C26.7087 10.4842 26.4286 10.0148 26.048 9.634L19.366 2.952C18.9853 2.57102 18.5159 2.29061 18 2.136V9.75C18 10.44 18.56 11 19.25 11H26.863Z" fill="#858E9F"/>
</svg>
