<svg width="28" height="28" viewBox="0 0 28 28" fill="none" xmlns="http://www.w3.org/2000/svg">
<path d="M16.3333 16.6286V25.668H4.66666C4.6663 24.2434 4.99206 22.8375 5.61901 21.5583C6.24595 20.279 7.15742 19.1602 8.28358 18.2876C9.40974 17.4151 10.7207 16.8119 12.1161 16.5243C13.5113 16.2369 14.954 16.2725 16.3333 16.6286ZM14 15.168C10.1325 15.168 6.99999 12.0355 6.99999 8.16797C6.99999 4.30047 10.1325 1.16797 14 1.16797C17.8675 1.16797 21 4.30047 21 8.16797C21 12.0355 17.8675 15.168 14 15.168ZM21 19.8346V16.3346H23.3333V19.8346H26.8333V22.168H23.3333V25.668H21V22.168H17.5V19.8346H21Z" fill="#003B63"/>
<path d="M21 16.3346V19.8346H17.5V22.168H21V25.668H23.3333V22.168H26.8333V19.8346H23.3333V16.3346H21Z" fill="#FF5B04"/>
<path d="M6.99999 8.16797C6.99999 12.0355 10.1325 15.168 14 15.168C17.8675 15.168 21 12.0355 21 8.16797C21 4.30047 17.8675 1.16797 14 1.16797C10.1325 1.16797 6.99999 4.30047 6.99999 8.16797Z" fill="#00707A"/>
</svg>
