<svg width="14" height="16" viewBox="0 0 14 16" fill="none" xmlns="http://www.w3.org/2000/svg">
<path d="M7.973 15.4578C7.818 15.3026 7.74208 15.1253 7.74525 14.926C7.74842 14.7267 7.82433 14.5526 7.973 14.4038L11.127 11.25H1.80775C1.30908 11.25 0.883083 11.0734 0.52975 10.7203C0.176583 10.3669 0 9.94092 0 9.44225V0.75C0 0.537167 0.0718332 0.359 0.2155 0.2155C0.359 0.0718332 0.537167 0 0.75 0C0.962833 0 1.141 0.0718332 1.2845 0.2155C1.42817 0.359 1.5 0.537167 1.5 0.75V9.44225C1.5 9.53208 1.52883 9.60583 1.5865 9.6635C1.64417 9.72117 1.71792 9.75 1.80775 9.75H11.127L7.95775 6.58075C7.80258 6.42558 7.72758 6.24992 7.73275 6.05375C7.73792 5.85775 7.81292 5.68217 7.95775 5.527C8.11292 5.37183 8.29017 5.29333 8.4895 5.2915C8.68883 5.2895 8.86283 5.36283 9.0115 5.5115L13.3673 9.86725C13.4609 9.96092 13.5269 10.0597 13.5652 10.1635C13.6037 10.2673 13.623 10.3795 13.623 10.5C13.623 10.6205 13.6037 10.7327 13.5652 10.8365C13.5269 10.9403 13.4609 11.0391 13.3673 11.1328L9.04225 15.4578C8.88708 15.6128 8.70892 15.6902 8.50775 15.6902C8.30642 15.6902 8.12817 15.6128 7.973 15.4578Z" fill="#A1A1A1"/>
</svg>
