<svg width="20" height="20" viewBox="0 0 20 20" fill="none" xmlns="http://www.w3.org/2000/svg">
<g clip-path="url(#clip0_2514_108990)">
<path d="M9.9974 13.3346V10.0013M9.9974 6.66797H10.0057M1.66406 7.10359V12.899C1.66406 13.1028 1.66406 13.2048 1.68709 13.3007C1.7075 13.3857 1.74117 13.467 1.78686 13.5415C1.8384 13.6256 1.91046 13.6977 2.05459 13.8418L6.15687 17.9441C6.301 18.0882 6.37306 18.1603 6.45716 18.2118C6.53172 18.2575 6.61301 18.2912 6.69804 18.3116C6.79394 18.3346 6.89586 18.3346 7.09968 18.3346H12.8951C13.0989 18.3346 13.2008 18.3346 13.2968 18.3116C13.3818 18.2912 13.4631 18.2575 13.5376 18.2118C13.6217 18.1603 13.6938 18.0882 13.8379 17.9441L17.9402 13.8418C18.0843 13.6977 18.1564 13.6256 18.2079 13.5415C18.2536 13.467 18.2873 13.3857 18.3077 13.3007C18.3307 13.2048 18.3307 13.1028 18.3307 12.899V7.10359C18.3307 6.89976 18.3307 6.79785 18.3077 6.70194C18.2873 6.61691 18.2536 6.53563 18.2079 6.46106C18.1564 6.37697 18.0843 6.3049 17.9402 6.16078L13.8379 2.05849C13.6938 1.91437 13.6217 1.8423 13.5376 1.79077C13.4631 1.74508 13.3818 1.71141 13.2968 1.69099C13.2008 1.66797 13.0989 1.66797 12.8951 1.66797H7.09968C6.89586 1.66797 6.79394 1.66797 6.69804 1.69099C6.61301 1.71141 6.53172 1.74508 6.45716 1.79077C6.37306 1.8423 6.301 1.91437 6.15687 2.05849L2.05459 6.16078C1.91046 6.3049 1.8384 6.37697 1.78686 6.46106C1.74117 6.53563 1.7075 6.61691 1.68709 6.70194C1.66406 6.79785 1.66406 6.89976 1.66406 7.10359Z" stroke="#535862" stroke-width="1.7" stroke-linecap="round" stroke-linejoin="round"/>
</g>
<defs>
<clipPath id="clip0_2514_108990">
<rect width="20" height="20" fill="white"/>
</clipPath>
</defs>
</svg>
