<svg width="20" height="20" viewBox="0 0 20 20" fill="none" xmlns="http://www.w3.org/2000/svg">
<path d="M17.0834 6.66667V13.5C17.0834 14.9001 17.0834 15.6002 16.8109 16.135C16.5712 16.6054 16.1888 16.9878 15.7184 17.2275C15.1836 17.5 14.4835 17.5 13.0834 17.5H6.91675C5.51662 17.5 4.81655 17.5 4.28177 17.2275C3.81137 16.9878 3.42892 16.6054 3.18923 16.135C2.91675 15.6002 2.91675 14.9001 2.91675 13.5V6.66667M3.00008 2.5H17.0001C17.4668 2.5 17.7001 2.5 17.8784 2.59083C18.0352 2.67072 18.1627 2.79821 18.2426 2.95501C18.3334 3.13327 18.3334 3.36662 18.3334 3.83333V5.33333C18.3334 5.80004 18.3334 6.0334 18.2426 6.21166C18.1627 6.36846 18.0352 6.49594 17.8784 6.57584C17.7001 6.66667 17.4668 6.66667 17.0001 6.66667H3.00008C2.53337 6.66667 2.30002 6.66667 2.12176 6.57584C1.96495 6.49594 1.83747 6.36846 1.75758 6.21166C1.66675 6.0334 1.66675 5.80004 1.66675 5.33333V3.83333C1.66675 3.36662 1.66675 3.13327 1.75758 2.95501C1.83747 2.79821 1.96495 2.67072 2.12176 2.59083C2.30002 2.5 2.53337 2.5 3.00008 2.5ZM8.00008 9.58333H12.0001C12.4668 9.58333 12.7001 9.58333 12.8784 9.67416C13.0352 9.75406 13.1627 9.88154 13.2426 10.0383C13.3334 10.2166 13.3334 10.45 13.3334 10.9167V11.5833C13.3334 12.05 13.3334 12.2834 13.2426 12.4617C13.1627 12.6185 13.0352 12.7459 12.8784 12.8258C12.7001 12.9167 12.4668 12.9167 12.0001 12.9167H8.00008C7.53337 12.9167 7.30002 12.9167 7.12176 12.8258C6.96495 12.7459 6.83747 12.6185 6.75758 12.4617C6.66675 12.2834 6.66675 12.05 6.66675 11.5833V10.9167C6.66675 10.45 6.66675 10.2166 6.75758 10.0383C6.83747 9.88154 6.96495 9.75406 7.12176 9.67416C7.30002 9.58333 7.53337 9.58333 8.00008 9.58333Z" stroke="#94979C" stroke-width="1.67" stroke-linecap="round" stroke-linejoin="round"/>
</svg>
