<svg width="40" height="40" viewBox="0 0 40 40" fill="none" xmlns="http://www.w3.org/2000/svg">
<path d="M35 8.33398C31.4643 5.28402 26.0585 3.33398 20 3.33398C13.9416 3.33398 8.53562 5.28402 5 8.33398V18.334C5 31.6673 20 36.6673 20 36.6673C20 36.6673 35 31.6673 35 18.334V8.33398Z" stroke="black" stroke-width="2.5" stroke-linecap="round" stroke-linejoin="round"/>
<path d="M23 17.5333V14.2667C23 12.4625 21.6569 11 20 11C18.3431 11 17 12.4625 17 14.2667V17.5333M16.7429 25H23.2571C24.2172 25 24.6973 25 25.064 24.7965C25.3865 24.6176 25.6488 24.332 25.8132 23.9808C26 23.5815 26 23.0588 26 22.0133V20.52C26 19.4746 26 18.9519 25.8132 18.5526C25.6488 18.2013 25.3865 17.9158 25.064 17.7368C24.6973 17.5333 24.2172 17.5333 23.2571 17.5333H16.7429C15.7828 17.5333 15.3027 17.5333 14.936 17.7368C14.6135 17.9158 14.3512 18.2013 14.1868 18.5526C14 18.9519 14 19.4746 14 20.52V22.0133C14 23.0588 14 23.5815 14.1868 23.9808C14.3512 24.332 14.6135 24.6176 14.936 24.7965C15.3027 25 15.7828 25 16.7429 25Z" stroke="black" stroke-width="2.5" stroke-linecap="round" stroke-linejoin="round"/>
</svg>
