<svg width="29" height="29" viewBox="0 0 29 29" fill="none" xmlns="http://www.w3.org/2000/svg">
<path d="M8.75 16.75C8.75 16.75 10.75 19.4167 14.0833 19.4167C17.4167 19.4167 19.4167 16.75 19.4167 16.75M18.0833 10.0833H18.0967M10.0833 10.0833H10.0967M27.4167 14.0833C27.4167 21.4471 21.4471 27.4167 14.0833 27.4167C6.71954 27.4167 0.75 21.4471 0.75 14.0833C0.75 6.71954 6.71954 0.75 14.0833 0.75C21.4471 0.75 27.4167 6.71954 27.4167 14.0833ZM18.75 10.0833C18.75 10.4515 18.4515 10.75 18.0833 10.75C17.7151 10.75 17.4167 10.4515 17.4167 10.0833C17.4167 9.71514 17.7151 9.41667 18.0833 9.41667C18.4515 9.41667 18.75 9.71514 18.75 10.0833ZM10.75 10.0833C10.75 10.4515 10.4515 10.75 10.0833 10.75C9.71514 10.75 9.41667 10.4515 9.41667 10.0833C9.41667 9.71514 9.71514 9.41667 10.0833 9.41667C10.4515 9.41667 10.75 9.71514 10.75 10.0833Z" stroke="#475467" stroke-width="1.5" stroke-linecap="round" stroke-linejoin="round"/>
</svg>
