<svg xmlns="http://www.w3.org/2000/svg" width="48px" height="48px" xml:space="preserve" id="Layer_1" x="0" y="0" data-locator-target="cursor://file/${projectPath}${filePath}:${line}:${column}" style="enable-background:new 0 0 1086 1080" version="1.1" viewBox="0 0 1086 1080"><style>.st1{opacity:.5}.st2{fill:#19e0b1}</style><path d="M1081.3 211.8c-.1-5.6-.5-11.2-1-16.7l-.6-4.8c-.3-2.1-.6-4.1-.8-6.2-.1-.9-.3-1.8-.4-2.7-.2-.9-.4-1.8-.5-2.7-.3-1.8-.7-3.6-1-5.4-.3-1.4-.6-2.7-.9-4-.1-.5-.2-.9-.3-1.4-.4-1.5-.8-2.9-1.1-4.4-.4-1.7-.8-3.3-1.3-5-.3-.9-.5-1.8-.8-2.7-.4-1.2-.8-2.5-1.1-3.8-.4-1.2-.8-2.4-1.2-3.8-.5-1.5-1-3-1.6-4.6-.5-1.2-.9-2.6-1.4-3.9-.8-2-1.6-3.9-2.4-5.9-.3-.6-.5-1.1-.8-1.7-.3-.8-.6-1.4-.9-2.1-.3-.8-.6-1.4-.9-2.1-.6-1.1-1-2.3-1.6-3.4-.4-.8-.4-.8 0-.1-.9-1.9-1.8-3.8-2.8-5.6-.9-1.9-2-3.8-3-5.6-1.7-3.1-3.5-6.2-5.4-9.2 0 0-.1-.2-.2-.2C1011.1 42.5 943.2 1.5 865.8 1.5h-646C100.7 1.6 4.3 98.1 4.3 217.1v650.8c0 .9 0 1.9.1 2.8.1 3.1.3 6.2.5 9.3l140.6-37.5h.3c1.4-.6 2.9-1 4.4-1.4l261.7-69.9 20.7-5.5c6.4-1.7 13-2.5 19.4-2.5 7.5 0 14.9 1.1 22 3.4.7.2 1.3.4 2 .7 4.8 1.6 9.3 3.7 13.7 6.2 1.7 1 3.4 2.1 5 3.2 4.1 2.8 8 6.1 11.5 9.9l1.1 1.1c7.8 8.6 13.8 19.1 17 31.1 1.2 4.9 2.1 9.8 2.4 14.6.1 1.6.2 3.2.2 4.8 0 5.2-.6 10.2-1.6 15.2-.4 2-.9 3.9-1.5 5.9-3.5 11.7-9.6 22.3-18.1 30.9-1.8 1.9-3.8 3.7-5.7 5.4-2.6 2.3-5.5 4.2-8.5 6.1-1.7 1-3.5 2.1-5.3 2.9-2.1 1-4.2 2.1-6.5 2.9h-.2l-16.7 4.4c2.7-.4 5.5-.9 8.2-1.6H471.3h-.1l-196.4 52.5s-.2 0-.3.1c-1.1.4-2.4.8-3.7 1.1-.1 0-.2 0-.4.1l-200.6 53.6c38.8 37.7 91.7 60.8 150.1 60.8h646c119 0 215.5-96.5 215.5-215.5V216.8c-.1-1.7-.1-3.4-.1-5zM4.9 381.5l261.3-69.8L418 271.2l36.3-9.7s.4-.1.6-.2l145.8-38.9L737.2 186h.2c39.9-10.5 80.9 13.2 91.5 53.1 1.7 6.5 2.5 13 2.5 19.4 0 32.5-21.4 62.3-54.1 71.8-.4.2-.8.3-1.2.4-.1 0-.2 0-.3.1l-36.3 9.6s-.2.1-.4.1L639.8 367s-.4.1-.5.2l-145.8 39s-.3 0-.5.1l-46.1 12.3-141.7 37.8s-.2.1-.3.1L22.6 531.8s-.3 0-.5.1c-5.7 1.5-11.5 2.3-17.2 2.4V381.5zM58 770.6s-.3.1-.5.2l-53 14.1v-155l14.4-3.9 349.9-93.4L412 521c1.7-.6 3.4-1.1 5.1-1.6L585 474.6c40-10.6 81 13.1 91.7 53 1.7 6.4 2.5 13 2.5 19.4 0 32.5-21.2 62.2-53.9 71.8-.4.2-.8.3-1.2.4h-.5L471.3 660v.2l-21.9 5.9L58 770.6z" style="fill:#1f56dd"/><g class="st1"><path d="M1081.1 342.3v154.9L667.9 607.6s-.3.1-.5.2L625.5 619c32.6-9.5 53.9-39.3 53.9-71.8 0-6.4-.8-13-2.5-19.4-10.7-40-51.7-63.7-91.7-53l43.6-11.7c-.1-.1 452.3-120.8 452.3-120.8z" class="st2"/></g><g class="st1"><path d="M1081.1 592.1V747L479.7 907.6c2.3-.8 4.3-1.9 6.5-2.9 1.8-.9 3.5-1.9 5.3-2.9 2.9-1.9 5.7-3.9 8.5-6.1 2.1-1.7 3.9-3.5 5.7-5.4 8.5-8.7 14.6-19.3 18.1-30.9.6-1.9 1-3.9 1.5-5.9 1-4.9 1.6-10.1 1.6-15.2 0-1.6 0-3.2-.2-4.8-.4-4.8-1.1-9.7-2.4-14.6-3.2-12-9.2-22.6-17-31.1l-1.1-1.1c-3.5-3.7-7.3-7-11.5-9.9-1.6-1.1-3.3-2.2-5-3.2-4.3-2.5-8.9-4.7-13.7-6.2-.7-.3-1.3-.5-2-.7-7.1-2.2-14.5-3.4-22-3.4-6.4 0-12.9.8-19.4 2.5l-20.7 5.5c2.6-1 5.4-1.9 8.2-2.7l661-176.5z" class="st2"/></g><g class="st1"><path d="M1081.6 217.4v31.2s-.2.1-.3.1c-2.4.9-5 1.8-7.6 2.5l-296.4 79.1c32.6-9.5 54.1-39.3 54.1-71.8 0-6.4-.8-12.9-2.5-19.4-10.6-39.9-51.5-63.6-91.5-53.1l297.7-79.5c4.8-1.2 9.6-2.1 14.3-2.4h.2c20.4 32.9 32.1 71.7 32 113.3z" class="st2"/></g><path d="m639.4 367-145.8 39s-.3 0-.5.1h-.1L639.4 367z" class="st2"/><path d="M831.5 258.4c0 32.5-21.4 62.3-54.1 71.8l-37.8 10.1s-.2.1-.4.1l-99.3 26.5s-.4.1-.5.2L493 406.2l-46 12.3-141.7 37.8s-.2.1-.3.1L22.6 531.8s-.3 0-.5.1c-5.7 1.5-11.5 2.3-17.2 2.4V381.5l261.3-69.8L418 271.2l36.3-9.7s.4-.1.6-.2l145.8-38.9L737.2 186h.2c39.9-10.5 80.9 13.2 91.5 53.1 1.6 6.5 2.5 13 2.6 19.3z" class="st2"/><path d="M777.4 330.2s-.8.3-1.2.4c-.1 0-.2 0-.3.1l-282.3 75.4s-.3 0-.5.1h-.1L639.4 367s.4-.1.5-.2l99.3-26.5s.2 0 .4-.1l37.8-10zM462.8 912.1l16.7-4.4c-2.7 1-5.5 2.1-8.4 2.8H470.8c-2.6.7-5.4 1.2-8 1.6zM679.3 547.1c0 32.5-21.2 62.2-53.9 71.8l-1.4.4h-.3L471.3 660v.2l-21.9 5.9L58.1 770.6s-.3.1-.5.2L4.5 784.9v-155l14.4-3.9 349.9-93.4L412 521c1.7-.6 3.4-1.1 5.1-1.6L585 474.6c40-10.6 81 13.1 91.7 53 1.8 6.5 2.6 13.1 2.6 19.5z" class="st2"/><path d="m374 531 43.2-11.5c-1.7.5-3.4 1-5.1 1.6l-43.2 11.6c1.5-.6 3.1-1 4.7-1.5.2 0 .3-.1.4-.2zM625.5 618.9s-.8.3-1.2.4h-.2c-.1 0 1.4-.4 1.4-.4zM526.6 838.2c0 5.2-.6 10.2-1.6 15.2-.4 2.1-.9 3.9-1.5 5.9-3.5 11.7-9.6 22.3-18.1 30.9-1.8 1.9-3.8 3.7-5.7 5.4-2.6 2.3-5.5 4.2-8.5 6.1-1.7 1-3.5 2.1-5.3 2.9-2.1 1-4.2 2.1-6.5 2.9h-.2l-16.7 4.4c2.7-.4 5.5-.9 8.2-1.6H471h-.1l-196.4 52.5s-.2 0-.3.1c-1.1.4-2.4.8-3.7 1.1-.1 0-.2 0-.4.1l-200.6 53.6c-2.4-2.4-5-5-7.3-7.5-.8-.8-1.5-1.5-2.2-2.4C28.9 973.6 8.7 929.1 4.8 880l140.6-37.5h.3c1.4-.6 2.9-1 4.4-1.4l261.7-69.9 20.7-5.5c6.4-1.7 13-2.5 19.4-2.5 7.5 0 14.9 1.1 22 3.4.7.2 1.3.4 2 .7 4.8 1.6 9.3 3.7 13.7 6.2 1.7 1 3.4 2.1 5 3.2 4.1 2.8 8 6.1 11.5 9.9l1.1 1.1c7.8 8.6 13.8 19.1 17 31.1 1.2 4.9 2.1 9.8 2.4 14.6 0 1.5.1 3.1 0 4.8z" class="st2"/><path d="m462.8 912.1 16.7-4.4c-2.7 1-5.5 2.1-8.4 2.8H470.8c-2.6.7-5.4 1.2-8 1.6zM526.5 833.4c-.4-4.8-1.1-9.7-2.4-14.6 1.3 4.8 2.2 9.8 2.4 14.6z" class="st2"/></svg>