<svg width="51" height="51" viewBox="0 0 51 51" fill="none" xmlns="http://www.w3.org/2000/svg">
<path fill-rule="evenodd" clip-rule="evenodd" d="M25.4167 50.4987C11.5635 50.4987 0.333336 39.2686 0.333336 25.4154C0.333336 11.5622 11.5635 0.332031 25.4167 0.332031C39.2699 0.332031 50.5 11.5622 50.5 25.4154C50.5 39.2686 39.2699 50.4987 25.4167 50.4987ZM36.5425 19.9091C37.3675 18.9191 37.2338 17.4478 36.2438 16.6228C35.2538 15.7979 33.7824 15.9316 32.9575 16.9216L22.9265 28.9588L17.7333 23.7655C16.822 22.8543 15.3446 22.8543 14.4334 23.7655C13.5222 24.6766 13.5222 26.1541 14.4334 27.0653L21.4334 34.0653C21.8971 34.5289 22.5341 34.776 23.189 34.7464C23.844 34.7165 24.4563 34.4127 24.8758 33.9092L36.5425 19.9091Z" fill="#079455"/>
</svg>
