<svg width="40" height="40" viewBox="0 0 40 40" fill="none" xmlns="http://www.w3.org/2000/svg">
<path d="M23.3333 11.6667H27.2287C27.6363 11.6667 27.8402 11.6667 28.032 11.7128C28.202 11.7536 28.3646 11.821 28.5137 11.9123C28.6819 12.0154 28.826 12.1595 29.1143 12.4478L35.8855 19.219C36.1738 19.5073 36.3179 19.6514 36.421 19.8196C36.5124 19.9687 36.5797 20.1313 36.6205 20.3014C36.6666 20.4932 36.6666 20.697 36.6666 21.1047V25.8334C36.6666 26.61 36.6666 26.9983 36.5397 27.3046C36.3706 27.7129 36.0461 28.0374 35.6377 28.2065C35.3314 28.3334 34.9432 28.3334 34.1666 28.3334M25.8333 28.3334H23.3333M23.3333 28.3334V12.0001C23.3333 10.1332 23.3333 9.19982 22.9699 8.48678C22.6504 7.85957 22.1404 7.34964 21.5132 7.03006C20.8002 6.66675 19.8668 6.66675 17.9999 6.66675H8.66659C6.79974 6.66675 5.86632 6.66675 5.15328 7.03006C4.52608 7.34964 4.01614 7.85957 3.69656 8.48678C3.33325 9.19982 3.33325 10.1332 3.33325 12.0001V25.0001C3.33325 26.841 4.82564 28.3334 6.66659 28.3334M23.3333 28.3334H16.6666M16.6666 28.3334C16.6666 31.0948 14.428 33.3334 11.6666 33.3334C8.90516 33.3334 6.66659 31.0948 6.66659 28.3334M16.6666 28.3334C16.6666 25.572 14.428 23.3334 11.6666 23.3334C8.90516 23.3334 6.66659 25.572 6.66659 28.3334M34.1666 29.1667C34.1666 31.4679 32.3011 33.3334 29.9999 33.3334C27.6987 33.3334 25.8333 31.4679 25.8333 29.1667C25.8333 26.8656 27.6987 25.0001 29.9999 25.0001C32.3011 25.0001 34.1666 26.8656 34.1666 29.1667Z" stroke="#181D27" stroke-width="2" stroke-linecap="round" stroke-linejoin="round"/>
</svg>
