<svg width="48" height="48" viewBox="0 0 48 48" fill="none" xmlns="http://www.w3.org/2000/svg">
<circle cx="24" cy="24" r="23.5" stroke="#FECDCA"/>
<rect x="8" y="8" width="32" height="32" rx="16" fill="#F04438"/>
<path d="M24 20.6691V24.0024M24 27.3358H24.0083M16.5 20.6203V27.3846C16.5 27.6701 16.5 27.8129 16.5421 27.9402C16.5793 28.0528 16.6401 28.1562 16.7205 28.2435C16.8114 28.3421 16.9362 28.4114 17.1858 28.5501L23.3525 31.976C23.5888 32.1073 23.707 32.173 23.8321 32.1987C23.9429 32.2215 24.0571 32.2215 24.1679 32.1987C24.293 32.173 24.4112 32.1073 24.6475 31.976L30.8142 28.5501C31.0638 28.4114 31.1886 28.3421 31.2795 28.2435C31.3599 28.1562 31.4207 28.0528 31.4579 27.9402C31.5 27.8129 31.5 27.6701 31.5 27.3846V20.6203C31.5 20.3348 31.5 20.192 31.4579 20.0647C31.4207 19.952 31.3599 19.8486 31.2795 19.7614C31.1886 19.6628 31.0638 19.5934 30.8142 19.4548L24.6475 16.0288C24.4112 15.8975 24.293 15.8319 24.1679 15.8061C24.0571 15.7834 23.9429 15.7834 23.8321 15.8061C23.707 15.8319 23.5888 15.8975 23.3525 16.0288L17.1858 19.4548C16.9362 19.5934 16.8114 19.6628 16.7205 19.7614C16.6401 19.8486 16.5793 19.952 16.5421 20.0647C16.5 20.192 16.5 20.3348 16.5 20.6203Z" stroke="white" stroke-width="1.336" stroke-linecap="round" stroke-linejoin="round"/>
</svg>
