<svg width="17" height="18" viewBox="0 0 17 18" fill="none" xmlns="http://www.w3.org/2000/svg">
<path d="M5.13672 5.45833C5.13672 3.60013 6.6431 2.09375 8.5013 2.09375C10.3595 2.09375 11.8659 3.60013 11.8659 5.45833C11.8659 7.31654 10.3595 8.82292 8.5013 8.82292C6.6431 8.82292 5.13672 7.31654 5.13672 5.45833Z" fill="#079455"/>
<path d="M8.57209 9.85714C11.3803 9.85714 13.003 10.3679 13.6581 10.6345C13.8755 10.7229 14 10.9292 14 11.1534C14 13.2777 12.1827 14.9998 9.94081 15H7.0002C4.79096 15 3.00003 13.2778 3 11.1534C3 10.9292 3.12223 10.7229 3.33644 10.6345C3.98174 10.368 5.58035 9.85714 8.34816 9.85714C8.38515 9.85714 8.42192 9.85801 8.45849 9.85819C8.49614 9.85801 8.53401 9.85714 8.57209 9.85714Z" fill="#079455"/>
<path d="M8.57209 3C10.2374 3 11.5881 4.27919 11.5881 5.85714C11.5881 7.43509 10.2374 8.71429 8.57209 8.71429C8.534 8.71428 8.49624 8.70932 8.45849 8.70798C8.42182 8.70927 8.38516 8.71429 8.34816 8.71429C6.70722 8.71429 5.37696 7.43509 5.37696 5.85714C5.37696 4.27919 6.70722 3 8.34816 3C8.38514 3 8.42184 3.00396 8.45849 3.00525C8.49623 3.00392 8.53402 3.00001 8.57209 3Z" fill="#079455"/>
</svg>
