<svg width="17" height="18" viewBox="0 0 17 18" fill="none" xmlns="http://www.w3.org/2000/svg">
<path fill-rule="evenodd" clip-rule="evenodd" d="M9.07692 5.85714C9.07692 7.43509 7.78542 8.71429 6.19231 8.71429C4.59918 8.71429 3.30769 7.43509 3.30769 5.85714C3.30769 4.27919 4.59918 3 6.19231 3C7.78542 3 9.07692 4.27919 9.07692 5.85714ZM8.04637 9.94594C7.96571 10.2843 7.92308 10.6373 7.92308 11C7.92308 12.3757 8.53658 13.6095 9.50742 14.4475C8.92179 14.7982 8.23519 15 7.50094 15H4.88367C2.73878 15 1 13.2778 1 11.1533C1 10.9291 1.11865 10.7232 1.32662 10.6347C1.95304 10.3683 3.50498 9.85714 6.19231 9.85714C6.88444 9.85714 7.50129 9.89103 8.04637 9.94594ZM13.6084 11.4286H14.8057C14.6297 12.3473 13.8987 13.0713 12.9712 13.2456V12.0598C13.2604 11.9438 13.4914 11.715 13.6084 11.4286ZM13.6084 10.5714H14.8057C14.6031 9.51394 13.6651 8.71429 12.5385 8.71429C11.4118 8.71429 10.4738 9.51394 10.2713 10.5714H11.4685C11.6397 10.1526 12.0542 9.85714 12.5385 9.85714C13.0227 9.85714 13.4373 10.1526 13.6084 10.5714ZM11.4685 11.4286H10.2713C10.4472 12.3473 11.1783 13.0713 12.1058 13.2456V12.0598C11.8165 11.9438 11.5856 11.715 11.4685 11.4286ZM16 11C16 12.8935 14.4502 14.4286 12.5385 14.4286C10.6267 14.4286 9.07692 12.8935 9.07692 11C9.07692 9.10646 10.6267 7.57143 12.5385 7.57143C14.4502 7.57143 16 9.10646 16 11Z" fill="#003B63"/>
</svg>
