<svg width="20" height="20" viewBox="0 0 20 20" fill="none" xmlns="http://www.w3.org/2000/svg">
<path d="M14.1667 16.6673C15.0871 16.6673 15.8333 15.9211 15.8333 15.0007C15.8333 14.0802 15.0871 13.334 14.1667 13.334C13.2462 13.334 12.5 14.0802 12.5 15.0007C12.5 15.9211 13.2462 16.6673 14.1667 16.6673Z" stroke="#181D27" stroke-width="1.5" stroke-linecap="round" stroke-linejoin="round"/>
<path d="M7.5013 15.0007C7.5013 15.9212 6.75511 16.6673 5.83464 16.6673C4.91416 16.6673 4.16797 15.9212 4.16797 15.0007C4.16797 14.0802 4.91416 13.334 5.83464 13.334C6.75511 13.334 7.5013 14.0802 7.5013 15.0007Z" stroke="#181D27" stroke-width="1.5" stroke-linecap="round" stroke-linejoin="round"/>
<path d="M10.832 15.0007H12.4987M10.832 5.83398H14.1977C14.7039 5.83398 15.1828 6.06413 15.4991 6.45949L17.9668 9.54415C18.2032 9.83965 18.332 10.2068 18.332 10.5853V14.1673C18.332 14.6276 17.9589 15.0007 17.4987 15.0007H15.832" stroke="#181D27" stroke-width="1.5" stroke-linecap="round" stroke-linejoin="round"/>
<path d="M7.5013 15.0007H10.8346V4.16732C10.8346 3.70708 10.4616 3.33398 10.0013 3.33398H2.5013C2.04106 3.33398 1.66797 3.70708 1.66797 4.16732V14.1673C1.66797 14.6276 2.04107 15.0007 2.5013 15.0007H4.16797" stroke="#181D27" stroke-width="1.5" stroke-linecap="round" stroke-linejoin="round"/>
<path d="M10.832 5.83398L12.4749 9.08557C12.7585 9.64682 13.3338 10.0007 13.9625 10.0007H17.9154" stroke="#181D27" stroke-width="1.5" stroke-linecap="round" stroke-linejoin="round"/>
</svg>
