<svg xmlns="http://www.w3.org/2000/svg" width="56" height="57" fill="none"><g clip-path="url(#a)"><path fill="#F0F0F0" d="M28 56.133c15.464 0 28-12.536 28-28s-12.536-28-28-28-28 12.536-28 28 12.536 28 28 28Z"/><path fill="#D80027" d="M26.781 28.133H56a28.03 28.03 0 0 0-.965-7.305H26.781v7.305ZM26.781 13.523H51.89a28.148 28.148 0 0 0-6.46-7.305H26.78v7.305ZM27.999 56.133a27.88 27.88 0 0 0 17.43-6.087h-34.86A27.88 27.88 0 0 0 28 56.133ZM4.109 42.74h47.78a27.83 27.83 0 0 0 3.146-7.305H.964a27.835 27.835 0 0 0 3.145 7.304Z"/><path fill="#0052B4" d="M12.97 4.505h2.552L13.148 6.23l.907 2.79-2.373-1.725L9.308 9.02l.783-2.41a28.155 28.155 0 0 0-5.43 6.052h.817l-1.51 1.097c-.236.393-.462.792-.678 1.197l.721 2.22-1.346-.978c-.334.71-.64 1.434-.915 2.174l.795 2.447h2.933l-2.373 1.724.906 2.79-2.373-1.724L.216 24.64A28.27 28.27 0 0 0 0 28.134h28v-28a27.868 27.868 0 0 0-15.03 4.372Zm1.085 20.828-2.373-1.724-2.374 1.724.907-2.79-2.374-1.724h2.934l.907-2.79.906 2.79h2.934l-2.374 1.724.907 2.79Zm-.907-10.947.907 2.79-2.373-1.724-2.374 1.724.907-2.79-2.374-1.724h2.934l.907-2.79.906 2.79h2.934l-2.374 1.724Zm10.95 10.947-2.373-1.724-2.373 1.724.906-2.79-2.373-1.724h2.933l.907-2.79.906 2.79h2.934l-2.373 1.724.906 2.79Zm-.906-10.947.906 2.79-2.373-1.724-2.373 1.724.906-2.79-2.373-1.724h2.933l.907-2.79.906 2.79h2.934l-2.373 1.724Zm0-8.156.906 2.79-2.373-1.725-2.373 1.725.906-2.79-2.373-1.725h2.933l.907-2.79.906 2.79h2.934L23.192 6.23Z"/></g><defs><clipPath id="a"><path fill="#fff" d="M0 .133h56v56H0z"/></clipPath></defs></svg>