<svg width="20" height="20" viewBox="0 0 20 20" fill="none" xmlns="http://www.w3.org/2000/svg">
<path d="M14.1667 16.6654C15.0871 16.6654 15.8333 15.9192 15.8333 14.9987C15.8333 14.0782 15.0871 13.332 14.1667 13.332C13.2462 13.332 12.5 14.0782 12.5 14.9987C12.5 15.9192 13.2462 16.6654 14.1667 16.6654Z" stroke="#079455" stroke-width="1.5" stroke-linecap="round" stroke-linejoin="round"/>
<path d="M7.49935 14.9987C7.49935 15.9192 6.75316 16.6654 5.83268 16.6654C4.91221 16.6654 4.16602 15.9192 4.16602 14.9987C4.16602 14.0782 4.91221 13.332 5.83268 13.332C6.75316 13.332 7.49935 14.0782 7.49935 14.9987Z" stroke="#079455" stroke-width="1.5" stroke-linecap="round" stroke-linejoin="round"/>
<path d="M10.834 14.9987H12.5007M10.834 5.83203H14.1997C14.7059 5.83203 15.1847 6.06218 15.5011 6.45754L17.9687 9.5422C18.2052 9.8377 18.334 10.2049 18.334 10.5834V14.1654C18.334 14.6256 17.9609 14.9987 17.5007 14.9987H15.834" stroke="#079455" stroke-width="1.5" stroke-linecap="round" stroke-linejoin="round"/>
<path d="M7.49935 14.9987H10.8327V4.16536C10.8327 3.70513 10.4596 3.33203 9.99935 3.33203H2.49935C2.03911 3.33203 1.66602 3.70513 1.66602 4.16536V14.1654C1.66602 14.6256 2.03912 14.9987 2.49935 14.9987H4.16602" stroke="#079455" stroke-width="1.5" stroke-linecap="round" stroke-linejoin="round"/>
<path d="M10.834 5.83203L12.4769 9.08361C12.7605 9.64486 13.3357 9.9987 13.9645 9.9987H17.9173" stroke="#079455" stroke-width="1.5" stroke-linecap="round" stroke-linejoin="round"/>
</svg>
