<svg width="20" height="20" viewBox="0 0 20 20" fill="none" xmlns="http://www.w3.org/2000/svg">
<path d="M14.1654 17.0827C15.316 17.0827 16.2487 16.1499 16.2487 14.9993C16.2487 13.8488 15.316 12.916 14.1654 12.916C13.0148 12.916 12.082 13.8488 12.082 14.9993C12.082 16.1499 13.0148 17.0827 14.1654 17.0827Z" fill="#079455"/>
<path d="M5.83333 17.0827C6.98393 17.0827 7.91667 16.1499 7.91667 14.9993C7.91667 13.8488 6.98393 12.916 5.83333 12.916C4.68274 12.916 3.75 13.8488 3.75 14.9993C3.75 16.1499 4.68274 17.0827 5.83333 17.0827Z" fill="#079455"/>
<path fill-rule="evenodd" clip-rule="evenodd" d="M0.832031 4.16667C0.832031 3.24619 1.57822 2.5 2.4987 2.5H9.9987C10.9192 2.5 11.6654 3.24619 11.6654 4.16667V5H14.1976C14.9571 5 15.6754 5.34522 16.1499 5.93827L18.6175 9.02292C18.9722 9.46617 19.1654 10.0169 19.1654 10.5847V14.1667C19.1654 15.0872 18.4192 15.8333 17.4987 15.8333H17.2212C17.2934 15.5678 17.332 15.2884 17.332 15C17.332 13.2511 15.9143 11.8333 14.1654 11.8333C12.4164 11.8333 10.9987 13.2511 10.9987 15C10.9987 15.2884 11.0373 15.5678 11.1095 15.8333H8.88786C8.96011 15.5678 8.9987 15.2884 8.9987 15C8.9987 13.2511 7.58093 11.8333 5.83203 11.8333C4.08313 11.8333 2.66536 13.2511 2.66536 15C2.66536 15.2884 2.70392 15.5678 2.77616 15.8333H2.4987C1.57822 15.8333 0.832031 15.0872 0.832031 14.1667V4.16667ZM16.5982 9.16667L14.8484 6.97942C14.6902 6.78174 14.4508 6.66667 14.1976 6.66667H12.1868L13.2187 8.70917C13.3605 8.98975 13.6481 9.16667 13.9625 9.16667H16.5982Z" fill="#079455"/>
</svg>
