<svg width="32" height="32" viewBox="0 0 32 32" fill="none" xmlns="http://www.w3.org/2000/svg">
<path fill-rule="evenodd" clip-rule="evenodd" d="M12.7873 4.26833C12.4626 4.54504 12.3002 4.6834 12.1268 4.79962C11.7293 5.06603 11.283 5.25092 10.8135 5.3436C10.6087 5.38403 10.3961 5.401 9.97084 5.43493C8.90232 5.5202 8.36807 5.56284 7.92234 5.72027C6.89141 6.08441 6.0805 6.89531 5.71637 7.92624C5.55893 8.37197 5.5163 8.90623 5.43103 9.97474C5.39709 10.4 5.38012 10.6126 5.33969 10.8174C5.24701 11.2869 5.06212 11.7332 4.79571 12.1307C4.6795 12.3041 4.54114 12.4665 4.26442 12.7912C3.56918 13.607 3.22153 14.0149 3.01768 14.4414C2.54619 15.4279 2.54619 16.5747 3.01768 17.5612C3.22154 17.9877 3.56917 18.3956 4.26442 19.2114C4.54111 19.5361 4.6795 19.6985 4.79571 19.8719C5.06212 20.2694 5.24701 20.7157 5.33969 21.1852C5.38012 21.39 5.39709 21.6026 5.43103 22.0279C5.5163 23.0964 5.55893 23.6306 5.71637 24.0764C6.0805 25.1073 6.89141 25.9182 7.92234 26.2823C8.36806 26.4398 8.90232 26.4824 9.97084 26.5677C10.3961 26.6016 10.6087 26.6186 10.8135 26.659C11.283 26.7517 11.7293 26.9366 12.1268 27.203C12.3002 27.3192 12.4626 27.4576 12.7873 27.7343C13.6031 28.4295 14.011 28.7772 14.4375 28.981C15.424 29.4525 16.5708 29.4525 17.5573 28.981C17.9838 28.7772 18.3917 28.4295 19.2075 27.7343C19.5322 27.4576 19.6946 27.3192 19.868 27.203C20.2655 26.9366 20.7118 26.7517 21.1813 26.659C21.386 26.6186 21.5987 26.6016 22.024 26.5677C23.0925 26.4824 23.6267 26.4398 24.0725 26.2823C25.1034 25.9182 25.9143 25.1073 26.2784 24.0764C26.4359 23.6306 26.4785 23.0964 26.5638 22.0279C26.5977 21.6026 26.6147 21.39 26.6551 21.1852C26.7478 20.7157 26.9327 20.2694 27.1991 19.8719C27.3153 19.6985 27.4536 19.5361 27.7304 19.2114C28.4256 18.3956 28.7733 17.9877 28.9771 17.5612C29.4486 16.5747 29.4486 15.4279 28.9771 14.4414C28.7733 14.0149 28.4256 13.607 27.7304 12.7912C27.4536 12.4665 27.3153 12.3041 27.1991 12.1307C26.9327 11.7332 26.7478 11.2869 26.6551 10.8174C26.6147 10.6126 26.5977 10.4 26.5638 9.97474C26.4785 8.90623 26.4359 8.37197 26.2784 7.92624C25.9143 6.89531 25.1034 6.08441 24.0725 5.72027C23.6267 5.56284 23.0925 5.5202 22.024 5.43493C21.5987 5.401 21.386 5.38403 21.1813 5.3436C20.7118 5.25092 20.2654 5.06603 19.868 4.79962C19.6946 4.6834 19.5322 4.54505 19.2075 4.26833C18.3917 3.57307 17.9838 3.22544 17.5573 3.02159C16.5708 2.5501 15.424 2.5501 14.4375 3.02159C14.011 3.22544 13.6031 3.57308 12.7873 4.26833ZM21.8287 13.1521C22.2525 12.7284 22.2525 12.0413 21.8287 11.6175C21.4049 11.1937 20.7179 11.1937 20.2941 11.6175L13.8271 18.0845L11.7007 15.9581C11.2769 15.5343 10.5898 15.5343 10.166 15.9581C9.74227 16.3819 9.74227 17.069 10.166 17.4927L13.0598 20.3865C13.4835 20.8102 14.1706 20.8102 14.5944 20.3865L21.8287 13.1521Z" fill="#858E9F"/>
</svg>
